<svg version="1.1" id="Layer_1" xmlns="http://www.w3.org/2000/svg" xmlns:xlink="http://www.w3.org/1999/xlink" x="0px" y="0px"
	 width="100%" viewBox="0 0 2038 310" enable-background="new 0 0 2038 310" xml:space="preserve">
<path fill="#FFFFFF" opacity="1.000000" stroke="none" 
	d="
M1933.000000,311.000000 
	C1288.666626,311.000000 644.833313,311.000000 1.000000,311.000000 
	C1.000000,207.666672 1.000000,104.333336 1.000000,1.000000 
	C680.333313,1.000000 1359.666626,1.000000 2039.000000,1.000000 
	C2039.000000,104.333336 2039.000000,207.666672 2039.000000,311.000000 
	C2003.833374,311.000000 1968.666626,311.000000 1933.000000,311.000000 
M87.625595,156.117249 
	C83.362930,156.772934 79.110191,157.504837 74.834618,158.061371 
	C71.095924,158.547989 67.982422,159.688156 67.307053,163.976974 
	C66.677673,167.973648 69.117241,169.896927 72.219604,171.640137 
	C91.563370,182.509445 106.361046,197.652084 115.525452,218.048203 
	C116.914330,221.139267 118.540688,224.116211 122.647415,223.969543 
	C127.032494,223.812943 128.268723,220.438065 129.502701,217.112183 
	C136.138260,199.227509 142.721405,181.323059 149.478027,163.484299 
	C149.993057,162.124527 151.629150,160.358597 152.885437,160.236618 
	C168.426788,158.727509 183.974869,157.147125 199.559616,156.257004 
	C226.054764,154.743729 252.414383,157.087357 278.748444,159.812393 
	C282.199402,160.169510 283.894379,161.250656 285.114441,164.629471 
	C291.622742,182.653870 298.307007,200.619080 305.318573,218.452148 
	C306.222198,220.750473 309.501312,223.737885 311.460510,223.585419 
	C313.884186,223.396820 317.106934,220.733002 318.210480,218.325439 
	C327.613770,197.810837 342.315308,182.379486 361.983978,171.612152 
	C365.329590,169.780670 367.363464,167.495850 366.707794,163.776306 
	C366.040894,159.993164 363.123352,158.585754 359.474426,158.081345 
	C338.404663,155.168777 317.360748,152.065277 296.275360,149.273758 
	C293.154449,148.860565 291.784119,147.645294 290.562805,144.876892 
	C282.417847,126.414406 272.963867,108.732483 258.618896,94.166679 
	C248.077759,83.463234 235.781387,76.116432 220.434570,75.181656 
	C197.296387,73.772301 181.200775,86.118645 167.591568,102.894577 
	C157.110535,115.814438 149.929291,130.686707 142.835739,145.604767 
	C142.135757,147.076843 140.277359,148.738892 138.755753,148.965836 
	C122.027275,151.460648 105.258911,153.688095 87.625595,156.117249 
M1594.716309,246.777130 
	C1599.817017,250.122162 1604.566772,254.287659 1610.088135,256.649384 
	C1623.485229,262.379944 1637.732178,262.285278 1651.796875,259.933411 
	C1674.536377,256.130920 1690.325562,241.782654 1690.009155,215.488480 
	C1689.600342,181.517548 1689.910034,147.537979 1689.910278,113.562119 
	C1689.910278,111.809258 1689.910278,110.056389 1689.910278,108.318848 
	C1679.757080,108.318848 1670.334229,108.318848 1660.159668,108.318848 
	C1660.159668,114.200729 1660.159668,119.809235 1660.159668,126.566093 
	C1652.744751,114.864899 1646.880615,110.079636 1638.073608,107.966240 
	C1619.740845,103.567001 1601.100098,111.661377 1591.527954,128.017654 
	C1583.207886,142.234360 1582.316528,157.787262 1583.984131,173.482849 
	C1586.016357,192.610260 1594.226074,207.999115 1613.880737,214.286102 
	C1629.815430,219.383163 1649.702637,217.031494 1658.220825,199.854691 
	C1658.421265,199.450806 1659.171753,199.319702 1660.045776,198.862534 
	C1660.045776,206.680801 1660.293701,213.996964 1659.967896,221.287506 
	C1659.703979,227.188660 1657.230347,232.124222 1651.970459,235.447876 
	C1640.511597,242.688477 1622.759766,239.708008 1614.497681,229.128601 
	C1613.790039,228.222504 1612.345703,226.976105 1611.576294,227.174896 
	C1603.475220,229.268341 1595.441772,231.623779 1586.324829,234.208786 
	C1589.364136,238.839951 1591.798340,242.549194 1594.716309,246.777130 
M558.492615,207.978317 
	C543.000427,163.724548 527.476257,119.481895 512.090271,75.191238 
	C511.096680,72.331070 509.540466,71.880074 506.941101,71.906616 
	C496.613525,72.012093 486.277802,72.158745 475.958740,71.843857 
	C472.019989,71.723679 470.535706,73.219574 469.353607,76.722237 
	C456.541199,114.685043 443.569580,152.594116 430.646271,190.519485 
	C427.603790,199.448135 424.579254,208.382889 421.312927,218.002533 
	C431.719849,218.002533 441.336609,217.850998 450.944000,218.085571 
	C454.261047,218.166565 455.544159,216.944641 456.443604,213.911880 
	C459.042145,205.150299 461.864716,196.449158 464.887177,187.825134 
	C465.392609,186.382935 467.322052,184.444870 468.618164,184.425964 
	C484.597595,184.192810 500.581635,184.273926 516.834106,184.273926 
	C520.173035,194.344528 523.375000,204.308212 526.855042,214.173813 
	C527.386536,215.680420 529.173523,217.792877 530.431458,217.829071 
	C540.737366,218.125534 551.055603,217.996231 561.991455,217.996231 
	C560.820312,214.578827 559.812500,211.638062 558.492615,207.978317 
M1400.502808,192.801849 
	C1394.887207,192.801849 1389.271484,192.801849 1383.533203,192.801849 
	C1383.533203,180.531616 1383.533203,168.830185 1383.533203,156.889954 
	C1404.173584,156.889954 1424.483276,156.889954 1444.999390,156.889954 
	C1444.999390,148.460922 1444.999390,140.277832 1444.999390,131.581635 
	C1424.227417,131.581635 1403.828979,131.581635 1383.476929,131.581635 
	C1383.476929,119.966347 1383.476929,108.871582 1383.476929,97.258926 
	C1406.006470,97.258926 1428.265747,97.258926 1450.523193,97.258926 
	C1450.523193,88.629158 1450.523193,80.525200 1450.523193,72.186417 
	C1417.840088,72.186417 1385.420532,72.186417 1352.714233,72.186417 
	C1352.714233,120.717331 1352.714233,169.125443 1352.714233,217.735535 
	C1385.446899,217.735535 1417.992310,217.735535 1450.598633,217.735535 
	C1450.598633,209.385040 1450.598633,201.305786 1450.598633,192.801834 
	C1434.083862,192.801834 1417.792847,192.801834 1400.502808,192.801849 
M1890.207886,207.302277 
	C1907.169556,222.004944 1936.598145,224.762161 1956.835571,213.568192 
	C1966.411133,208.271652 1972.998901,200.618896 1976.186035,189.590134 
	C1967.663330,187.994858 1959.560791,186.370056 1951.405273,185.079346 
	C1950.301392,184.904648 1948.827393,186.273361 1947.705078,187.156540 
	C1944.015381,190.060150 1940.859009,194.329422 1936.691650,195.818741 
	C1918.945068,202.161087 1903.371826,190.454056 1903.394043,171.070038 
	C1915.704346,171.070038 1928.017944,171.070053 1940.331543,171.070053 
	C1952.742432,171.070053 1965.153320,171.070038 1977.591309,171.070038 
	C1977.591309,165.480026 1977.919434,160.639053 1977.534668,155.855423 
	C1975.847656,134.881760 1967.315552,117.806152 1946.542969,110.540833 
	C1925.400635,103.146202 1904.999512,105.313316 1888.339355,122.090149 
	C1877.288208,133.218842 1873.638672,147.415176 1873.512695,162.745911 
	C1873.375244,179.483887 1877.103516,194.765961 1890.207886,207.302277 
M1077.889771,110.526337 
	C1064.430298,105.935287 1050.739868,105.532516 1037.146851,109.345764 
	C1022.887695,113.345863 1012.511169,121.895157 1007.901306,137.296158 
	C1015.932556,138.651230 1023.596680,139.818375 1031.202026,141.289627 
	C1034.242188,141.877747 1035.754150,141.163452 1037.421997,138.346283 
	C1042.644531,129.525116 1058.352783,126.449692 1066.810791,132.204437 
	C1070.984009,135.043884 1073.263916,140.527390 1072.093018,145.310745 
	C1071.019043,149.697708 1067.184814,150.313202 1063.619385,151.049683 
	C1060.859863,151.619690 1058.036255,151.890594 1055.235107,152.245575 
	C1043.553467,153.725891 1031.686646,154.355896 1020.912292,159.910461 
	C1010.093933,165.487717 1004.966370,174.374298 1004.836121,186.516235 
	C1004.697510,199.436646 1009.209351,209.840958 1021.055908,215.717972 
	C1033.107422,221.696609 1045.921143,222.383270 1058.204956,216.757355 
	C1063.982300,214.111420 1068.745117,209.250595 1074.100098,205.295609 
	C1074.100098,208.991638 1074.100098,213.344070 1074.100098,217.675201 
	C1083.814087,217.675201 1092.887451,217.675201 1102.317749,217.675201 
	C1102.317749,215.708801 1102.317871,214.064728 1102.317749,212.420670 
	C1102.316772,189.772156 1102.335327,167.123627 1102.308105,144.475159 
	C1102.287842,127.514832 1094.734619,116.832512 1077.889771,110.526337 
M1561.554565,122.000900 
	C1554.761719,112.321236 1545.302246,107.733025 1533.635010,106.997574 
	C1517.371826,105.972420 1505.471802,112.653488 1497.929321,127.388313 
	C1497.568848,127.200882 1497.208252,127.013443 1496.847778,126.826012 
	C1496.847778,120.659424 1496.847778,114.492828 1496.847778,108.018959 
	C1488.615723,108.018959 1481.117920,108.295349 1473.653320,107.915329 
	C1469.173950,107.687279 1468.080933,109.113518 1468.105591,113.498817 
	C1468.290527,146.495773 1468.206421,179.494247 1468.206421,212.492249 
	C1468.206421,214.256012 1468.206299,216.019775 1468.206299,217.856567 
	C1478.604492,217.856567 1488.247925,217.856567 1498.357056,217.856567 
	C1498.357056,215.902161 1498.357056,214.096802 1498.357056,212.291443 
	C1498.357544,192.959274 1498.268921,173.626572 1498.389282,154.295151 
	C1498.471069,141.162674 1507.019775,132.081131 1518.978882,132.045715 
	C1530.890015,132.010468 1538.036499,139.464600 1538.304688,153.185165 
	C1538.640137,170.344116 1538.422485,187.513901 1538.441162,204.679001 
	C1538.445923,208.978760 1538.441895,213.278534 1538.441895,217.636414 
	C1548.805664,217.636414 1558.674194,217.636414 1568.630249,217.636414 
	C1568.630249,193.121475 1569.146484,168.959915 1568.323364,144.844070 
	C1568.068237,137.370316 1564.173828,130.020782 1561.554565,122.000900 
M1858.863525,178.500046 
	C1858.862183,168.840286 1859.183350,159.165802 1858.742676,149.526123 
	C1858.464355,143.440506 1857.786499,137.178146 1855.995239,131.395462 
	C1851.649780,117.366280 1841.602295,109.109039 1827.146729,107.285225 
	C1812.996460,105.499908 1800.298828,108.688301 1791.696777,121.462311 
	C1790.584717,123.113831 1789.323730,124.665131 1788.131714,126.262833 
	C1787.695435,126.107246 1787.259155,125.951660 1786.822876,125.796066 
	C1786.822876,119.957733 1786.822876,114.119392 1786.822876,108.373398 
	C1777.022217,108.373398 1767.948486,108.373398 1758.718506,108.373398 
	C1758.718506,145.078186 1758.718506,181.429871 1758.718506,217.835449 
	C1768.723267,217.835449 1778.350342,217.835449 1788.492798,217.835449 
	C1788.492798,215.872055 1788.492798,214.075851 1788.492798,212.279663 
	C1788.492920,193.626328 1788.475342,174.972946 1788.516113,156.319702 
	C1788.521240,154.001266 1788.669434,151.656769 1789.036133,149.370010 
	C1790.744507,138.713120 1799.501221,131.531219 1810.011230,132.054810 
	C1820.971558,132.600830 1827.557861,139.437317 1828.331787,151.117462 
	C1828.474854,153.275177 1828.544067,155.441696 1828.545898,157.604263 
	C1828.562378,175.924500 1828.555542,194.244736 1828.555664,212.564987 
	C1828.555664,214.310745 1828.555542,216.056488 1828.555542,217.693909 
	C1839.045776,217.693909 1848.795288,217.693909 1858.863525,217.693909 
	C1858.863525,204.756454 1858.863525,192.128265 1858.863525,178.500046 
M1215.407959,218.001419 
	C1217.505371,218.001419 1219.602783,218.001419 1222.065674,218.001419 
	C1222.065674,201.174500 1222.171875,185.036591 1222.027222,168.900925 
	C1221.936279,158.758942 1222.047607,148.562363 1221.038940,138.493393 
	C1219.407349,122.205589 1208.390503,110.488312 1191.702515,107.624619 
	C1175.708252,104.879929 1161.859863,109.095985 1152.964355,124.586662 
	C1152.461548,125.462173 1151.744019,126.214378 1151.126587,127.023979 
	C1150.797852,126.940437 1150.469116,126.856895 1150.140381,126.773354 
	C1150.140381,120.722748 1150.140381,114.672142 1150.140381,108.352905 
	C1140.440308,108.352905 1131.386597,108.352905 1122.158691,108.352905 
	C1122.158691,145.027252 1122.158691,181.374084 1122.158691,217.578430 
	C1132.293457,217.578430 1142.011841,217.578430 1151.902466,217.578430 
	C1151.902466,196.166550 1151.894775,175.177429 1151.906982,154.188309 
	C1151.910889,147.596710 1153.590698,141.552765 1158.804321,137.180984 
	C1165.530762,131.540833 1173.229614,130.454300 1181.222534,133.993393 
	C1189.019043,137.445480 1191.751099,144.310059 1191.804565,152.287766 
	C1191.938599,172.283249 1191.855225,192.280182 1191.858887,212.276535 
	C1191.859253,214.042542 1191.858887,215.808563 1191.858887,218.001419 
	C1199.831909,218.001419 1207.129028,218.001419 1215.407959,218.001419 
M644.786560,113.635544 
	C625.622925,104.328468 606.135071,104.150986 587.011475,113.032799 
	C568.150574,121.792641 562.969360,145.798019 576.278076,160.471527 
	C583.346924,168.265320 593.125671,170.717117 602.946167,172.954483 
	C611.190613,174.832764 619.443665,176.744446 627.548401,179.131805 
	C631.048523,180.162842 633.233032,183.027573 633.237854,187.109207 
	C633.242676,191.156433 630.963562,193.526428 627.718323,195.331070 
	C615.853943,201.928635 601.516846,197.470062 595.048584,185.297089 
	C594.509216,184.282059 592.848633,183.047684 591.902832,183.191360 
	C583.562866,184.458359 575.266846,186.014511 566.577332,187.552475 
	C567.985352,198.658264 573.483337,206.956940 582.538635,211.954407 
	C604.318176,223.974106 626.657532,223.675293 648.255859,211.582245 
	C660.188843,204.900909 665.427979,193.714798 663.811951,179.955353 
	C662.401062,167.942139 654.517395,161.070801 643.736389,157.488449 
	C636.517456,155.089722 628.932678,153.798828 621.524414,151.960770 
	C616.051697,150.602966 610.338623,149.780106 605.200256,147.611221 
	C597.782776,144.480286 597.320374,136.176437 603.831055,131.749939 
	C613.231262,125.358925 627.807434,128.734161 633.510254,138.511841 
	C634.132141,139.578094 635.653687,141.019760 636.548767,140.886124 
	C644.704834,139.668381 652.814575,138.139694 661.237061,136.648911 
	C659.212891,126.296272 653.582275,119.265762 644.786560,113.635544 
M707.451599,135.150131 
	C716.353210,125.040115 733.793091,126.702332 740.354736,138.220688 
	C740.996094,139.346542 742.399597,141.029083 743.221741,140.907959 
	C751.515320,139.686218 759.761414,138.141953 768.308777,136.637619 
	C765.773376,125.056496 759.326355,117.473015 749.647766,112.498268 
	C738.077026,106.550987 725.585266,106.230690 713.066223,107.376678 
	C704.394531,108.170486 696.197266,110.851318 688.895203,115.968315 
	C670.825867,128.630615 671.577942,158.183365 692.505554,166.997421 
	C701.289429,170.696899 710.926086,172.361252 720.157104,175.013351 
	C725.400879,176.519867 730.896606,177.552582 735.756348,179.886703 
	C741.335205,182.566284 741.846802,189.062302 737.633118,193.288422 
	C730.915161,200.026260 709.435791,200.684921 703.836731,188.392380 
	C701.699219,183.699570 699.330322,182.598785 694.520203,183.760086 
	C687.671387,185.413589 680.645752,186.335205 673.570129,187.591766 
	C674.523865,195.372620 677.672913,201.283279 682.528198,206.304123 
	C691.086548,215.154327 701.974548,218.854874 713.893616,219.860229 
	C730.223022,221.237595 745.810913,219.330856 759.318054,208.829941 
	C775.289490,196.413254 777.165710,167.048538 752.223755,158.014526 
	C748.949951,156.828735 745.635071,155.676666 742.250488,154.891754 
	C733.192200,152.791077 724.000610,151.217743 715.025024,148.823441 
	C707.671570,146.861877 705.505188,142.696060 707.451599,135.150131 
M923.294434,169.371979 
	C918.666138,165.703491 914.537720,160.835037 909.291626,158.649796 
	C901.562683,155.430374 893.035461,154.129547 884.851440,151.999359 
	C879.236145,150.537750 873.355347,149.687073 868.081177,147.425354 
	C861.207214,144.477615 860.711975,136.434570 866.571350,132.074997 
	C875.658936,125.313683 891.181702,128.642578 896.758362,138.411285 
	C897.405579,139.544952 899.166199,140.960785 900.200989,140.809738 
	C908.199890,139.642166 916.147217,138.120850 924.458496,136.647446 
	C922.151428,125.610214 916.182739,118.059341 906.920227,113.059189 
	C894.822144,106.528252 881.739685,106.159821 868.507263,107.525635 
	C859.784851,108.425949 851.586914,111.070709 844.488586,116.457512 
	C828.307007,128.737381 827.801392,153.300339 844.286621,164.378586 
	C850.689941,168.681717 858.861877,170.548370 866.428772,172.871506 
	C874.500427,175.349609 882.963989,176.608948 890.921265,179.367355 
	C893.345276,180.207642 895.509583,184.021652 896.272156,186.879517 
	C897.275269,190.638748 894.482056,193.329086 891.220276,195.204910 
	C879.488586,201.951492 864.403442,197.503448 858.353638,185.596222 
	C857.804138,184.514664 856.284119,183.010498 855.432861,183.139664 
	C846.944702,184.427750 838.502319,186.017883 830.123962,187.509079 
	C830.461426,196.949417 836.690247,207.267914 846.241638,212.309845 
	C867.836060,223.708984 889.875671,223.725204 911.120728,211.769684 
	C926.844604,202.921143 931.507446,185.498550 923.294434,169.371979 
M1230.833740,119.505791 
	C1230.833740,123.271835 1230.833740,127.037888 1230.833740,131.252747 
	C1236.114258,131.252747 1240.703735,131.252747 1245.749146,131.252747 
	C1245.749146,133.667755 1245.736938,135.631638 1245.751099,137.595322 
	C1245.884766,156.249435 1245.764771,174.910568 1246.275391,193.554398 
	C1246.509644,202.103882 1250.383179,209.406143 1257.867798,214.009079 
	C1270.255737,221.627350 1283.612915,220.515747 1297.020142,217.493683 
	C1297.803223,217.317154 1298.966675,215.821854 1298.850098,215.124680 
	C1297.712402,208.324066 1296.339478,201.562775 1295.006714,194.650421 
	C1292.183350,194.897705 1290.048706,195.136429 1287.907593,195.263260 
	C1278.421143,195.825226 1275.975830,193.533951 1275.963013,184.010681 
	C1275.941406,168.015915 1275.955688,152.021103 1275.954834,136.026321 
	C1275.954834,134.458008 1275.954834,132.889679 1275.954834,130.980804 
	C1283.074707,130.980804 1289.353149,130.980804 1295.797363,130.980804 
	C1295.797363,123.263145 1295.797363,115.899307 1295.797363,107.946404 
	C1289.023315,107.946404 1282.629761,107.946404 1275.767456,107.946404 
	C1275.767456,99.104118 1275.767456,90.849876 1275.767456,82.472931 
	C1265.562866,82.472931 1255.850098,82.472931 1245.651855,82.472931 
	C1245.651855,91.106781 1245.651855,99.370605 1245.651855,108.147156 
	C1240.587402,108.147156 1235.999390,108.147156 1230.833618,108.147156 
	C1230.833618,111.949318 1230.833618,115.234314 1230.833740,119.505791 
M976.071716,89.587799 
	C976.071716,87.185089 976.071716,84.782387 976.071716,82.420319 
	C965.554749,82.420319 955.974609,82.420319 945.750854,82.420319 
	C945.750854,91.104462 945.750854,99.480759 945.750854,108.323372 
	C940.512207,108.323372 935.924438,108.323372 931.357300,108.323372 
	C931.357300,116.200974 931.357300,123.572586 931.357300,131.373322 
	C936.369568,131.373322 940.960876,131.373322 945.860779,131.373322 
	C945.860779,133.623627 945.860596,135.431107 945.860901,137.238586 
	C945.863220,154.054642 945.789612,170.871185 945.895569,187.686600 
	C945.962341,198.279633 948.422058,208.061310 958.127014,214.047256 
	C970.485901,221.670135 983.856140,220.570099 997.231873,217.399323 
	C998.023621,217.211609 999.000183,215.073196 998.831299,214.011002 
	C997.819580,207.649017 996.497253,201.336395 995.220642,194.703568 
	C992.453796,194.917892 990.002502,195.171936 987.544617,195.286697 
	C978.667542,195.701141 976.088379,193.277878 976.080261,184.523529 
	C976.065247,168.373459 976.073242,152.223358 976.071655,136.073273 
	C976.071533,134.495987 976.071716,132.918701 976.071716,130.845367 
	C983.264099,130.845367 989.677734,130.845367 996.349548,130.845367 
	C996.349548,124.358833 996.161255,118.366470 996.419312,112.393387 
	C996.577454,108.731995 995.090637,107.822304 991.734863,107.968582 
	C986.641174,108.190605 981.530640,108.026642 976.071716,108.026642 
	C976.071716,101.820961 976.071716,96.192009 976.071716,89.587799 
M1739.194824,208.471436 
	C1739.194824,175.112381 1739.194824,141.753326 1739.194824,108.024376 
	C1730.411499,108.024376 1722.436157,108.292618 1714.490967,107.919785 
	C1710.009521,107.709488 1708.928833,109.137550 1708.953003,113.509148 
	C1709.135986,146.623901 1709.049805,179.740128 1709.064209,212.855896 
	C1709.064941,214.462509 1709.225342,216.069061 1709.312378,217.695663 
	C1719.469727,217.695663 1729.194580,217.695663 1739.194824,217.695663 
	C1739.194824,214.747589 1739.194824,212.105270 1739.194824,208.471436 
M785.030884,142.500000 
	C785.030884,167.558884 785.030884,192.617752 785.030884,217.749695 
	C795.433655,217.749695 805.020935,217.749695 814.776001,217.749695 
	C814.776001,181.173538 814.776001,144.851410 814.776001,108.027046 
	C806.116089,108.027046 797.825928,108.165520 789.544189,107.961433 
	C786.048157,107.875282 784.896362,109.038933 784.966003,112.538246 
	C785.158325,122.188759 785.031494,131.845642 785.030884,142.500000 
M1732.804565,92.505348 
	C1733.358032,92.139801 1733.940308,91.810944 1734.460571,91.403137 
	C1740.715210,86.501190 1742.499756,79.615105 1739.288818,72.829720 
	C1736.160767,66.219986 1727.937256,62.487530 1720.306396,64.214027 
	C1713.111694,65.841866 1708.051392,71.978378 1708.017334,79.116531 
	C1707.960083,91.119392 1719.670776,97.807716 1732.804565,92.505348 
M787.711914,69.277008 
	C786.878540,70.513351 785.871887,71.667694 785.241211,72.999985 
	C782.243042,79.333549 784.225403,86.937843 789.903564,91.278549 
	C796.148132,96.052254 804.989441,95.893623 811.158752,90.897217 
	C816.724548,86.389694 818.341064,78.850090 815.105530,72.489914 
	C810.242371,62.930508 797.536743,61.151253 787.711914,69.277008 
z"/>
<path fill="#181818" opacity="1.000000" stroke="none" 
	d="
M88.063477,156.052658 
	C105.258911,153.688095 122.027275,151.460648 138.755753,148.965836 
	C140.277359,148.738892 142.135757,147.076843 142.835739,145.604767 
	C149.929291,130.686707 157.110535,115.814438 167.591568,102.894577 
	C181.200775,86.118645 197.296387,73.772301 220.434570,75.181656 
	C235.781387,76.116432 248.077759,83.463234 258.618896,94.166679 
	C272.963867,108.732483 282.417847,126.414406 290.562805,144.876892 
	C291.784119,147.645294 293.154449,148.860565 296.275360,149.273758 
	C317.360748,152.065277 338.404663,155.168777 359.474426,158.081345 
	C363.123352,158.585754 366.040894,159.993164 366.707794,163.776306 
	C367.363464,167.495850 365.329590,169.780670 361.983978,171.612152 
	C342.315308,182.379486 327.613770,197.810837 318.210480,218.325439 
	C317.106934,220.733002 313.884186,223.396820 311.460510,223.585419 
	C309.501312,223.737885 306.222198,220.750473 305.318573,218.452148 
	C298.307007,200.619080 291.622742,182.653870 285.114441,164.629471 
	C283.894379,161.250656 282.199402,160.169510 278.748444,159.812393 
	C252.414383,157.087357 226.054764,154.743729 199.559616,156.257004 
	C183.974869,157.147125 168.426788,158.727509 152.885437,160.236618 
	C151.629150,160.358597 149.993057,162.124527 149.478027,163.484299 
	C142.721405,181.323059 136.138260,199.227509 129.502701,217.112183 
	C128.268723,220.438065 127.032494,223.812943 122.647415,223.969543 
	C118.540688,224.116211 116.914330,221.139267 115.525452,218.048203 
	C106.361046,197.652084 91.563370,182.509445 72.219604,171.640137 
	C69.117241,169.896927 66.677673,167.973648 67.307053,163.976974 
	C67.982422,159.688156 71.095924,158.547989 74.834618,158.061371 
	C79.110191,157.504837 83.362930,156.772934 88.063477,156.052658 
M226.153046,132.491501 
	C226.153046,118.032539 226.153046,103.573578 226.153046,88.798981 
	C219.792328,88.798981 213.883209,88.798981 208.182526,88.798981 
	C208.182526,107.485519 208.182526,125.223190 208.182526,143.066162 
	C214.268661,143.066162 220.018616,143.066162 226.153046,143.066162 
	C226.153046,139.751602 226.153046,136.619476 226.153046,132.491501 
M245.400024,99.384628 
	C241.323273,96.629288 237.246521,93.873955 232.893097,90.931618 
	C232.893097,109.240044 232.893097,126.425461 232.893097,144.023010 
	C238.063065,144.023010 242.823792,144.023010 247.751663,144.023010 
	C247.842545,143.767517 248.141907,143.317001 248.142975,142.865753 
	C248.173630,129.913895 248.240753,116.961159 248.082291,104.011246 
	C248.065536,102.643402 246.694489,101.292137 245.400024,99.384628 
M185.820724,117.503479 
	C185.820724,126.425400 185.820724,135.347321 185.820724,144.408920 
	C191.332626,144.143539 196.213593,143.908524 201.232727,143.666870 
	C201.232727,126.144745 201.232727,109.117386 201.232727,92.003220 
	C189.597931,95.596153 185.820740,100.571030 185.820724,112.014549 
	C185.820724,113.511719 185.820709,115.008888 185.820724,117.503479 
M157.112640,145.139832 
	C158.016968,145.716629 158.961563,146.844986 159.819183,146.782333 
	C166.255661,146.312286 172.674957,145.607346 179.254578,144.960663 
	C179.254578,133.033020 179.254578,121.357101 179.254578,108.996384 
	C169.865356,120.058075 163.510818,132.126740 157.112640,145.139832 
M254.460464,116.703949 
	C254.460464,125.990669 254.460464,135.277390 254.460464,144.921951 
	C262.097107,145.656891 269.432373,146.362823 276.767639,147.068756 
	C277.158264,146.707916 277.548859,146.347092 277.939453,145.986267 
	C270.736176,133.751251 263.532867,121.516228 256.329559,109.281212 
	C255.706558,109.523628 255.083557,109.766045 254.460556,110.008453 
	C254.460556,111.930832 254.460556,113.853203 254.460464,116.703949 
M117.159584,169.545715 
	C117.159584,167.959427 117.159584,166.373138 117.159584,164.468628 
	C108.367096,165.722397 100.261246,166.878265 93.930328,167.781036 
	C101.803093,175.385666 110.144089,183.442566 117.159592,190.219131 
	C117.159592,185.705704 117.159592,178.122589 117.159584,169.545715 
M318.589142,192.414948 
	C326.312134,184.237457 334.035126,176.059982 341.671967,167.973709 
	C333.782684,166.875656 325.502014,165.723114 316.846588,164.518417 
	C316.846588,174.205902 316.833557,183.168167 316.900635,192.129852 
	C316.902954,192.444336 317.701935,192.752869 318.589142,192.414948 
M135.886612,162.408371 
	C132.457153,162.661118 129.001251,162.746948 125.616714,163.283203 
	C124.763931,163.418304 123.520920,164.984512 123.505638,165.910355 
	C123.349579,175.367783 123.410149,184.828781 123.410149,194.288788 
	C123.675491,194.323410 123.940826,194.358047 124.206169,194.392670 
	C128.063156,183.999969 131.920151,173.607254 135.886612,162.408371 
M310.578674,186.338928 
	C310.578674,178.900101 310.578674,171.461273 310.578674,163.645508 
	C306.172180,163.085495 302.187927,162.579147 297.830200,162.025330 
	C301.910522,173.075714 305.796478,183.599701 309.682434,194.123703 
	C309.981171,194.073944 310.279877,194.024200 310.578613,193.974457 
	C310.578613,191.741013 310.578613,189.507568 310.578674,186.338928 
z"/>
<path fill="#101011" opacity="1.000000" stroke="none" 
	d="
M1594.474487,246.517792 
	C1591.798340,242.549194 1589.364136,238.839951 1586.324829,234.208786 
	C1595.441772,231.623779 1603.475220,229.268341 1611.576294,227.174896 
	C1612.345703,226.976105 1613.790039,228.222504 1614.497681,229.128601 
	C1622.759766,239.708008 1640.511597,242.688477 1651.970459,235.447876 
	C1657.230347,232.124222 1659.703979,227.188660 1659.967896,221.287506 
	C1660.293701,213.996964 1660.045776,206.680801 1660.045776,198.862534 
	C1659.171753,199.319702 1658.421265,199.450806 1658.220825,199.854691 
	C1649.702637,217.031494 1629.815430,219.383163 1613.880737,214.286102 
	C1594.226074,207.999115 1586.016357,192.610260 1583.984131,173.482849 
	C1582.316528,157.787262 1583.207886,142.234360 1591.527954,128.017654 
	C1601.100098,111.661377 1619.740845,103.567001 1638.073608,107.966240 
	C1646.880615,110.079636 1652.744751,114.864899 1660.159668,126.566093 
	C1660.159668,119.809235 1660.159668,114.200729 1660.159668,108.318848 
	C1670.334229,108.318848 1679.757080,108.318848 1689.910278,108.318848 
	C1689.910278,110.056389 1689.910278,111.809258 1689.910278,113.562119 
	C1689.910034,147.537979 1689.600342,181.517548 1690.009155,215.488480 
	C1690.325562,241.782654 1674.536377,256.130920 1651.796875,259.933411 
	C1637.732178,262.285278 1623.485229,262.379944 1610.088135,256.649384 
	C1604.566772,254.287659 1599.817017,250.122162 1594.474487,246.517792 
M1626.060791,190.659790 
	C1639.597656,196.870270 1651.948975,192.921478 1657.145874,179.976196 
	C1661.918457,168.088196 1661.652344,155.808533 1656.581055,144.013748 
	C1653.008667,135.705002 1646.498657,131.026321 1637.071899,131.132339 
	C1627.661133,131.238190 1621.278320,135.978439 1617.861816,144.415482 
	C1616.078491,148.819672 1614.615356,153.628006 1614.367065,158.325638 
	C1613.733276,170.318665 1614.508423,182.124664 1626.060791,190.659790 
z"/>
<path fill="#4CBB52" opacity="1.000000" stroke="none" 
	d="
M558.648682,208.337814 
	C559.812500,211.638062 560.820312,214.578827 561.991455,217.996231 
	C551.055603,217.996231 540.737366,218.125534 530.431458,217.829071 
	C529.173523,217.792877 527.386536,215.680420 526.855042,214.173813 
	C523.375000,204.308212 520.173035,194.344528 516.834106,184.273926 
	C500.581635,184.273926 484.597595,184.192810 468.618164,184.425964 
	C467.322052,184.444870 465.392609,186.382935 464.887177,187.825134 
	C461.864716,196.449158 459.042145,205.150299 456.443604,213.911880 
	C455.544159,216.944641 454.261047,218.166565 450.944000,218.085571 
	C441.336609,217.850998 431.719849,218.002533 421.312927,218.002533 
	C424.579254,208.382889 427.603790,199.448135 430.646271,190.519485 
	C443.569580,152.594116 456.541199,114.685043 469.353607,76.722237 
	C470.535706,73.219574 472.019989,71.723679 475.958740,71.843857 
	C486.277802,72.158745 496.613525,72.012093 506.941101,71.906616 
	C509.540466,71.880074 511.096680,72.331070 512.090271,75.191238 
	C527.476257,119.481895 543.000427,163.724548 558.648682,208.337814 
M500.840668,134.625229 
	C497.543671,122.719452 494.246704,110.813675 490.815552,98.423363 
	C485.194000,119.291786 479.762329,139.455444 474.265350,159.861526 
	C485.474060,159.861526 496.709137,159.861526 508.509460,159.861526 
	C505.953186,151.514496 503.487305,143.462585 500.840668,134.625229 
z"/>
<path fill="#101011" opacity="1.000000" stroke="none" 
	d="
M1401.002441,192.801849 
	C1417.792847,192.801834 1434.083862,192.801834 1450.598633,192.801834 
	C1450.598633,201.305786 1450.598633,209.385040 1450.598633,217.735535 
	C1417.992310,217.735535 1385.446899,217.735535 1352.714233,217.735535 
	C1352.714233,169.125443 1352.714233,120.717331 1352.714233,72.186417 
	C1385.420532,72.186417 1417.840088,72.186417 1450.523193,72.186417 
	C1450.523193,80.525200 1450.523193,88.629158 1450.523193,97.258926 
	C1428.265747,97.258926 1406.006470,97.258926 1383.476929,97.258926 
	C1383.476929,108.871582 1383.476929,119.966347 1383.476929,131.581635 
	C1403.828979,131.581635 1424.227417,131.581635 1444.999390,131.581635 
	C1444.999390,140.277832 1444.999390,148.460922 1444.999390,156.889954 
	C1424.483276,156.889954 1404.173584,156.889954 1383.533203,156.889954 
	C1383.533203,168.830185 1383.533203,180.531616 1383.533203,192.801849 
	C1389.271484,192.801849 1394.887207,192.801849 1401.002441,192.801849 
z"/>
<path fill="#101011" opacity="1.000000" stroke="none" 
	d="
M1889.944702,207.061752 
	C1877.103516,194.765961 1873.375244,179.483887 1873.512695,162.745911 
	C1873.638672,147.415176 1877.288208,133.218842 1888.339355,122.090149 
	C1904.999512,105.313316 1925.400635,103.146202 1946.542969,110.540833 
	C1967.315552,117.806152 1975.847656,134.881760 1977.534668,155.855423 
	C1977.919434,160.639053 1977.591309,165.480026 1977.591309,171.070038 
	C1965.153320,171.070038 1952.742432,171.070053 1940.331543,171.070053 
	C1928.017944,171.070053 1915.704346,171.070038 1903.394043,171.070038 
	C1903.371826,190.454056 1918.945068,202.161087 1936.691650,195.818741 
	C1940.859009,194.329422 1944.015381,190.060150 1947.705078,187.156540 
	C1948.827393,186.273361 1950.301392,184.904648 1951.405273,185.079346 
	C1959.560791,186.370056 1967.663330,187.994858 1976.186035,189.590134 
	C1972.998901,200.618896 1966.411133,208.271652 1956.835571,213.568192 
	C1936.598145,224.762161 1907.169556,222.004944 1889.944702,207.061752 
M1945.077148,152.159332 
	C1946.271362,151.983963 1947.465698,151.808594 1948.667358,151.632141 
	C1945.682739,135.609848 1937.768311,128.792847 1923.841675,129.838760 
	C1912.572021,130.685135 1904.198975,139.884155 1903.871338,152.159668 
	C1917.306519,152.159668 1930.735107,152.159668 1945.077148,152.159332 
z"/>
<path fill="#4DBB53" opacity="1.000000" stroke="none" 
	d="
M1078.250732,110.681122 
	C1094.734619,116.832512 1102.287842,127.514832 1102.308105,144.475159 
	C1102.335327,167.123627 1102.316772,189.772156 1102.317749,212.420670 
	C1102.317871,214.064728 1102.317749,215.708801 1102.317749,217.675201 
	C1092.887451,217.675201 1083.814087,217.675201 1074.100098,217.675201 
	C1074.100098,213.344070 1074.100098,208.991638 1074.100098,205.295609 
	C1068.745117,209.250595 1063.982300,214.111420 1058.204956,216.757355 
	C1045.921143,222.383270 1033.107422,221.696609 1021.055908,215.717972 
	C1009.209351,209.840958 1004.697510,199.436646 1004.836121,186.516235 
	C1004.966370,174.374298 1010.093933,165.487717 1020.912292,159.910461 
	C1031.686646,154.355896 1043.553467,153.725891 1055.235107,152.245575 
	C1058.036255,151.890594 1060.859863,151.619690 1063.619385,151.049683 
	C1067.184814,150.313202 1071.019043,149.697708 1072.093018,145.310745 
	C1073.263916,140.527390 1070.984009,135.043884 1066.810791,132.204437 
	C1058.352783,126.449692 1042.644531,129.525116 1037.421997,138.346283 
	C1035.754150,141.163452 1034.242188,141.877747 1031.202026,141.289627 
	C1023.596680,139.818375 1015.932556,138.651230 1007.901306,137.296158 
	C1012.511169,121.895157 1022.887695,113.345863 1037.146851,109.345764 
	C1050.739868,105.532516 1064.430298,105.935287 1078.250732,110.681122 
M1043.114624,174.356522 
	C1042.089966,174.898270 1041.050659,175.414291 1040.043213,175.986176 
	C1035.761963,178.416428 1033.630005,182.024612 1033.819702,187.024963 
	C1034.014160,192.147385 1036.907593,195.278625 1041.246704,197.300293 
	C1049.239380,201.024231 1061.440552,198.237961 1067.425537,191.738098 
	C1073.753174,184.865982 1073.029297,176.630798 1072.698364,168.308151 
	C1062.941772,170.263794 1053.393555,172.177689 1043.114624,174.356522 
z"/>
<path fill="#111112" opacity="1.000000" stroke="none" 
	d="
M1561.750122,122.307640 
	C1564.173828,130.020782 1568.068237,137.370316 1568.323364,144.844070 
	C1569.146484,168.959915 1568.630249,193.121475 1568.630249,217.636414 
	C1558.674194,217.636414 1548.805664,217.636414 1538.441895,217.636414 
	C1538.441895,213.278534 1538.445923,208.978760 1538.441162,204.679001 
	C1538.422485,187.513901 1538.640137,170.344116 1538.304688,153.185165 
	C1538.036499,139.464600 1530.890015,132.010468 1518.978882,132.045715 
	C1507.019775,132.081131 1498.471069,141.162674 1498.389282,154.295151 
	C1498.268921,173.626572 1498.357544,192.959274 1498.357056,212.291443 
	C1498.357056,214.096802 1498.357056,215.902161 1498.357056,217.856567 
	C1488.247925,217.856567 1478.604492,217.856567 1468.206299,217.856567 
	C1468.206299,216.019775 1468.206421,214.256012 1468.206421,212.492249 
	C1468.206421,179.494247 1468.290527,146.495773 1468.105591,113.498817 
	C1468.080933,109.113518 1469.173950,107.687279 1473.653320,107.915329 
	C1481.117920,108.295349 1488.615723,108.018959 1496.847778,108.018959 
	C1496.847778,114.492828 1496.847778,120.659424 1496.847778,126.826012 
	C1497.208252,127.013443 1497.568848,127.200882 1497.929321,127.388313 
	C1505.471802,112.653488 1517.371826,105.972420 1533.635010,106.997574 
	C1545.302246,107.733025 1554.761719,112.321236 1561.750122,122.307640 
z"/>
<path fill="#101011" opacity="1.000000" stroke="none" 
	d="
M1858.863525,179.000061 
	C1858.863525,192.128265 1858.863525,204.756454 1858.863525,217.693909 
	C1848.795288,217.693909 1839.045776,217.693909 1828.555542,217.693909 
	C1828.555542,216.056488 1828.555664,214.310745 1828.555664,212.564987 
	C1828.555542,194.244736 1828.562378,175.924500 1828.545898,157.604263 
	C1828.544067,155.441696 1828.474854,153.275177 1828.331787,151.117462 
	C1827.557861,139.437317 1820.971558,132.600830 1810.011230,132.054810 
	C1799.501221,131.531219 1790.744507,138.713120 1789.036133,149.370010 
	C1788.669434,151.656769 1788.521240,154.001266 1788.516113,156.319702 
	C1788.475342,174.972946 1788.492920,193.626328 1788.492798,212.279663 
	C1788.492798,214.075851 1788.492798,215.872055 1788.492798,217.835449 
	C1778.350342,217.835449 1768.723267,217.835449 1758.718506,217.835449 
	C1758.718506,181.429871 1758.718506,145.078186 1758.718506,108.373398 
	C1767.948486,108.373398 1777.022217,108.373398 1786.822876,108.373398 
	C1786.822876,114.119392 1786.822876,119.957733 1786.822876,125.796066 
	C1787.259155,125.951660 1787.695435,126.107246 1788.131714,126.262833 
	C1789.323730,124.665131 1790.584717,123.113831 1791.696777,121.462311 
	C1800.298828,108.688301 1812.996460,105.499908 1827.146729,107.285225 
	C1841.602295,109.109039 1851.649780,117.366280 1855.995239,131.395462 
	C1857.786499,137.178146 1858.464355,143.440506 1858.742676,149.526123 
	C1859.183350,159.165802 1858.862183,168.840286 1858.863525,179.000061 
z"/>
<path fill="#4CBA52" opacity="1.000000" stroke="none" 
	d="
M1214.917114,218.001419 
	C1207.129028,218.001419 1199.831909,218.001419 1191.858887,218.001419 
	C1191.858887,215.808563 1191.859253,214.042542 1191.858887,212.276535 
	C1191.855225,192.280182 1191.938599,172.283249 1191.804565,152.287766 
	C1191.751099,144.310059 1189.019043,137.445480 1181.222534,133.993393 
	C1173.229614,130.454300 1165.530762,131.540833 1158.804321,137.180984 
	C1153.590698,141.552765 1151.910889,147.596710 1151.906982,154.188309 
	C1151.894775,175.177429 1151.902466,196.166550 1151.902466,217.578430 
	C1142.011841,217.578430 1132.293457,217.578430 1122.158691,217.578430 
	C1122.158691,181.374084 1122.158691,145.027252 1122.158691,108.352905 
	C1131.386597,108.352905 1140.440308,108.352905 1150.140381,108.352905 
	C1150.140381,114.672142 1150.140381,120.722748 1150.140381,126.773354 
	C1150.469116,126.856895 1150.797852,126.940437 1151.126587,127.023979 
	C1151.744019,126.214378 1152.461548,125.462173 1152.964355,124.586662 
	C1161.859863,109.095985 1175.708252,104.879929 1191.702515,107.624619 
	C1208.390503,110.488312 1219.407349,122.205589 1221.038940,138.493393 
	C1222.047607,148.562363 1221.936279,158.758942 1222.027222,168.900925 
	C1222.171875,185.036591 1222.065674,201.174500 1222.065674,218.001419 
	C1219.602783,218.001419 1217.505371,218.001419 1214.917114,218.001419 
z"/>
<path fill="#4DBB53" opacity="1.000000" stroke="none" 
	d="
M645.103760,113.816055 
	C653.582275,119.265762 659.212891,126.296272 661.237061,136.648911 
	C652.814575,138.139694 644.704834,139.668381 636.548767,140.886124 
	C635.653687,141.019760 634.132141,139.578094 633.510254,138.511841 
	C627.807434,128.734161 613.231262,125.358925 603.831055,131.749939 
	C597.320374,136.176437 597.782776,144.480286 605.200256,147.611221 
	C610.338623,149.780106 616.051697,150.602966 621.524414,151.960770 
	C628.932678,153.798828 636.517456,155.089722 643.736389,157.488449 
	C654.517395,161.070801 662.401062,167.942139 663.811951,179.955353 
	C665.427979,193.714798 660.188843,204.900909 648.255859,211.582245 
	C626.657532,223.675293 604.318176,223.974106 582.538635,211.954407 
	C573.483337,206.956940 567.985352,198.658264 566.577332,187.552475 
	C575.266846,186.014511 583.562866,184.458359 591.902832,183.191360 
	C592.848633,183.047684 594.509216,184.282059 595.048584,185.297089 
	C601.516846,197.470062 615.853943,201.928635 627.718323,195.331070 
	C630.963562,193.526428 633.242676,191.156433 633.237854,187.109207 
	C633.233032,183.027573 631.048523,180.162842 627.548401,179.131805 
	C619.443665,176.744446 611.190613,174.832764 602.946167,172.954483 
	C593.125671,170.717117 583.346924,168.265320 576.278076,160.471527 
	C562.969360,145.798019 568.150574,121.792641 587.011475,113.032799 
	C606.135071,104.150986 625.622925,104.328468 645.103760,113.816055 
z"/>
<path fill="#4DBB53" opacity="1.000000" stroke="none" 
	d="
M707.284607,135.482849 
	C705.505188,142.696060 707.671570,146.861877 715.025024,148.823441 
	C724.000610,151.217743 733.192200,152.791077 742.250488,154.891754 
	C745.635071,155.676666 748.949951,156.828735 752.223755,158.014526 
	C777.165710,167.048538 775.289490,196.413254 759.318054,208.829941 
	C745.810913,219.330856 730.223022,221.237595 713.893616,219.860229 
	C701.974548,218.854874 691.086548,215.154327 682.528198,206.304123 
	C677.672913,201.283279 674.523865,195.372620 673.570129,187.591766 
	C680.645752,186.335205 687.671387,185.413589 694.520203,183.760086 
	C699.330322,182.598785 701.699219,183.699570 703.836731,188.392380 
	C709.435791,200.684921 730.915161,200.026260 737.633118,193.288422 
	C741.846802,189.062302 741.335205,182.566284 735.756348,179.886703 
	C730.896606,177.552582 725.400879,176.519867 720.157104,175.013351 
	C710.926086,172.361252 701.289429,170.696899 692.505554,166.997421 
	C671.577942,158.183365 670.825867,128.630615 688.895203,115.968315 
	C696.197266,110.851318 704.394531,108.170486 713.066223,107.376678 
	C725.585266,106.230690 738.077026,106.550987 749.647766,112.498268 
	C759.326355,117.473015 765.773376,125.056496 768.308777,136.637619 
	C759.761414,138.141953 751.515320,139.686218 743.221741,140.907959 
	C742.399597,141.029083 740.996094,139.346542 740.354736,138.220688 
	C733.793091,126.702332 716.353210,125.040115 707.284607,135.482849 
z"/>
<path fill="#4DBB53" opacity="1.000000" stroke="none" 
	d="
M923.503784,169.678528 
	C931.507446,185.498550 926.844604,202.921143 911.120728,211.769684 
	C889.875671,223.725204 867.836060,223.708984 846.241638,212.309845 
	C836.690247,207.267914 830.461426,196.949417 830.123962,187.509079 
	C838.502319,186.017883 846.944702,184.427750 855.432861,183.139664 
	C856.284119,183.010498 857.804138,184.514664 858.353638,185.596222 
	C864.403442,197.503448 879.488586,201.951492 891.220276,195.204910 
	C894.482056,193.329086 897.275269,190.638748 896.272156,186.879517 
	C895.509583,184.021652 893.345276,180.207642 890.921265,179.367355 
	C882.963989,176.608948 874.500427,175.349609 866.428772,172.871506 
	C858.861877,170.548370 850.689941,168.681717 844.286621,164.378586 
	C827.801392,153.300339 828.307007,128.737381 844.488586,116.457512 
	C851.586914,111.070709 859.784851,108.425949 868.507263,107.525635 
	C881.739685,106.159821 894.822144,106.528252 906.920227,113.059189 
	C916.182739,118.059341 922.151428,125.610214 924.458496,136.647446 
	C916.147217,138.120850 908.199890,139.642166 900.200989,140.809738 
	C899.166199,140.960785 897.405579,139.544952 896.758362,138.411285 
	C891.181702,128.642578 875.658936,125.313683 866.571350,132.074997 
	C860.711975,136.434570 861.207214,144.477615 868.081177,147.425354 
	C873.355347,149.687073 879.236145,150.537750 884.851440,151.999359 
	C893.035461,154.129547 901.562683,155.430374 909.291626,158.649796 
	C914.537720,160.835037 918.666138,165.703491 923.503784,169.678528 
z"/>
<path fill="#4CBB52" opacity="1.000000" stroke="none" 
	d="
M1230.833740,119.012550 
	C1230.833618,115.234314 1230.833618,111.949318 1230.833618,108.147156 
	C1235.999390,108.147156 1240.587402,108.147156 1245.651855,108.147156 
	C1245.651855,99.370605 1245.651855,91.106781 1245.651855,82.472931 
	C1255.850098,82.472931 1265.562866,82.472931 1275.767456,82.472931 
	C1275.767456,90.849876 1275.767456,99.104118 1275.767456,107.946404 
	C1282.629761,107.946404 1289.023315,107.946404 1295.797363,107.946404 
	C1295.797363,115.899307 1295.797363,123.263145 1295.797363,130.980804 
	C1289.353149,130.980804 1283.074707,130.980804 1275.954834,130.980804 
	C1275.954834,132.889679 1275.954834,134.458008 1275.954834,136.026321 
	C1275.955688,152.021103 1275.941406,168.015915 1275.963013,184.010681 
	C1275.975830,193.533951 1278.421143,195.825226 1287.907593,195.263260 
	C1290.048706,195.136429 1292.183350,194.897705 1295.006714,194.650421 
	C1296.339478,201.562775 1297.712402,208.324066 1298.850098,215.124680 
	C1298.966675,215.821854 1297.803223,217.317154 1297.020142,217.493683 
	C1283.612915,220.515747 1270.255737,221.627350 1257.867798,214.009079 
	C1250.383179,209.406143 1246.509644,202.103882 1246.275391,193.554398 
	C1245.764771,174.910568 1245.884766,156.249435 1245.751099,137.595322 
	C1245.736938,135.631638 1245.749146,133.667755 1245.749146,131.252747 
	C1240.703735,131.252747 1236.114258,131.252747 1230.833740,131.252747 
	C1230.833740,127.037888 1230.833740,123.271835 1230.833740,119.012550 
z"/>
<path fill="#4CBA52" opacity="1.000000" stroke="none" 
	d="
M976.071716,90.075432 
	C976.071716,96.192009 976.071716,101.820961 976.071716,108.026642 
	C981.530640,108.026642 986.641174,108.190605 991.734863,107.968582 
	C995.090637,107.822304 996.577454,108.731995 996.419312,112.393387 
	C996.161255,118.366470 996.349548,124.358833 996.349548,130.845367 
	C989.677734,130.845367 983.264099,130.845367 976.071716,130.845367 
	C976.071716,132.918701 976.071533,134.495987 976.071655,136.073273 
	C976.073242,152.223358 976.065247,168.373459 976.080261,184.523529 
	C976.088379,193.277878 978.667542,195.701141 987.544617,195.286697 
	C990.002502,195.171936 992.453796,194.917892 995.220642,194.703568 
	C996.497253,201.336395 997.819580,207.649017 998.831299,214.011002 
	C999.000183,215.073196 998.023621,217.211609 997.231873,217.399323 
	C983.856140,220.570099 970.485901,221.670135 958.127014,214.047256 
	C948.422058,208.061310 945.962341,198.279633 945.895569,187.686600 
	C945.789612,170.871185 945.863220,154.054642 945.860901,137.238586 
	C945.860596,135.431107 945.860779,133.623627 945.860779,131.373322 
	C940.960876,131.373322 936.369568,131.373322 931.357300,131.373322 
	C931.357300,123.572586 931.357300,116.200974 931.357300,108.323372 
	C935.924438,108.323372 940.512207,108.323372 945.750854,108.323372 
	C945.750854,99.480759 945.750854,91.104462 945.750854,82.420319 
	C955.974609,82.420319 965.554749,82.420319 976.071716,82.420319 
	C976.071716,84.782387 976.071716,87.185089 976.071716,90.075432 
z"/>
<path fill="#0F0F10" opacity="1.000000" stroke="none" 
	d="
M1739.194824,208.967194 
	C1739.194824,212.105270 1739.194824,214.747589 1739.194824,217.695663 
	C1729.194580,217.695663 1719.469727,217.695663 1709.312378,217.695663 
	C1709.225342,216.069061 1709.064941,214.462509 1709.064209,212.855896 
	C1709.049805,179.740128 1709.135986,146.623901 1708.953003,113.509148 
	C1708.928833,109.137550 1710.009521,107.709488 1714.490967,107.919785 
	C1722.436157,108.292618 1730.411499,108.024376 1739.194824,108.024376 
	C1739.194824,141.753326 1739.194824,175.112381 1739.194824,208.967194 
z"/>
<path fill="#4CBB52" opacity="1.000000" stroke="none" 
	d="
M785.030884,142.000000 
	C785.031494,131.845642 785.158325,122.188759 784.966003,112.538246 
	C784.896362,109.038933 786.048157,107.875282 789.544189,107.961433 
	C797.825928,108.165520 806.116089,108.027046 814.776001,108.027046 
	C814.776001,144.851410 814.776001,181.173538 814.776001,217.749695 
	C805.020935,217.749695 795.433655,217.749695 785.030884,217.749695 
	C785.030884,192.617752 785.030884,167.558884 785.030884,142.000000 
z"/>
<path fill="#121213" opacity="1.000000" stroke="none" 
	d="
M1732.477539,92.702515 
	C1719.670776,97.807716 1707.960083,91.119392 1708.017334,79.116531 
	C1708.051392,71.978378 1713.111694,65.841866 1720.306396,64.214027 
	C1727.937256,62.487530 1736.160767,66.219986 1739.288818,72.829720 
	C1742.499756,79.615105 1740.715210,86.501190 1734.460571,91.403137 
	C1733.940308,91.810944 1733.358032,92.139801 1732.477539,92.702515 
z"/>
<path fill="#4EBB54" opacity="1.000000" stroke="none" 
	d="
M787.958984,69.000015 
	C797.536743,61.151253 810.242371,62.930508 815.105530,72.489914 
	C818.341064,78.850090 816.724548,86.389694 811.158752,90.897217 
	C804.989441,95.893623 796.148132,96.052254 789.903564,91.278549 
	C784.225403,86.937843 782.243042,79.333549 785.241211,72.999985 
	C785.871887,71.667694 786.878540,70.513351 787.958984,69.000015 
z"/>
<path fill="#FFFFFF" opacity="1.000000" stroke="none" 
	d="
M226.153046,132.989441 
	C226.153046,136.619476 226.153046,139.751602 226.153046,143.066162 
	C220.018616,143.066162 214.268661,143.066162 208.182526,143.066162 
	C208.182526,125.223190 208.182526,107.485519 208.182526,88.798981 
	C213.883209,88.798981 219.792328,88.798981 226.153046,88.798981 
	C226.153046,103.573578 226.153046,118.032539 226.153046,132.989441 
z"/>
<path fill="#F5F5F5" opacity="1.000000" stroke="none" 
	d="
M245.675873,99.658905 
	C246.694489,101.292137 248.065536,102.643402 248.082291,104.011246 
	C248.240753,116.961159 248.173630,129.913895 248.142975,142.865753 
	C248.141907,143.317001 247.842545,143.767517 247.751663,144.023010 
	C242.823792,144.023010 238.063065,144.023010 232.893097,144.023010 
	C232.893097,126.425461 232.893097,109.240044 232.893097,90.931618 
	C237.246521,93.873955 241.323273,96.629288 245.675873,99.658905 
z"/>
<path fill="#F5F5F5" opacity="1.000000" stroke="none" 
	d="
M185.820709,117.004768 
	C185.820709,115.008888 185.820724,113.511719 185.820724,112.014549 
	C185.820740,100.571030 189.597931,95.596153 201.232727,92.003220 
	C201.232727,109.117386 201.232727,126.144745 201.232727,143.666870 
	C196.213593,143.908524 191.332626,144.143539 185.820724,144.408920 
	C185.820724,135.347321 185.820724,126.425400 185.820709,117.004768 
z"/>
<path fill="#EFEFEF" opacity="1.000000" stroke="none" 
	d="
M157.322113,144.783386 
	C163.510818,132.126740 169.865356,120.058075 179.254578,108.996384 
	C179.254578,121.357101 179.254578,133.033020 179.254578,144.960663 
	C172.674957,145.607346 166.255661,146.312286 159.819183,146.782333 
	C158.961563,146.844986 158.016968,145.716629 157.322113,144.783386 
z"/>
<path fill="#F0F0F0" opacity="1.000000" stroke="none" 
	d="
M254.460510,116.239761 
	C254.460556,113.853203 254.460556,111.930832 254.460556,110.008453 
	C255.083557,109.766045 255.706558,109.523628 256.329559,109.281212 
	C263.532867,121.516228 270.736176,133.751251 277.939453,145.986267 
	C277.548859,146.347092 277.158264,146.707916 276.767639,147.068756 
	C269.432373,146.362823 262.097107,145.656891 254.460464,144.921951 
	C254.460464,135.277390 254.460464,125.990669 254.460510,116.239761 
z"/>
<path fill="#FCFCFC" opacity="1.000000" stroke="none" 
	d="
M117.159592,170.042587 
	C117.159592,178.122589 117.159592,185.705704 117.159592,190.219131 
	C110.144089,183.442566 101.803093,175.385666 93.930328,167.781036 
	C100.261246,166.878265 108.367096,165.722397 117.159584,164.468628 
	C117.159584,166.373138 117.159584,167.959427 117.159592,170.042587 
z"/>
<path fill="#FDFDFD" opacity="1.000000" stroke="none" 
	d="
M318.359375,192.739563 
	C317.701935,192.752869 316.902954,192.444336 316.900635,192.129852 
	C316.833557,183.168167 316.846588,174.205902 316.846588,164.518417 
	C325.502014,165.723114 333.782684,166.875656 341.671967,167.973709 
	C334.035126,176.059982 326.312134,184.237457 318.359375,192.739563 
z"/>
<path fill="#E3E3E3" opacity="1.000000" stroke="none" 
	d="
M135.831879,162.811462 
	C131.920151,173.607254 128.063156,183.999969 124.206169,194.392670 
	C123.940826,194.358047 123.675491,194.323410 123.410149,194.288788 
	C123.410149,184.828781 123.349579,175.367783 123.505638,165.910355 
	C123.520920,164.984512 124.763931,163.418304 125.616714,163.283203 
	C129.001251,162.746948 132.457153,162.661118 135.831879,162.811462 
z"/>
<path fill="#E7E7E7" opacity="1.000000" stroke="none" 
	d="
M310.578644,186.806519 
	C310.578613,189.507568 310.578613,191.741013 310.578613,193.974457 
	C310.279877,194.024200 309.981171,194.073944 309.682434,194.123703 
	C305.796478,183.599701 301.910522,173.075714 297.830200,162.025330 
	C302.187927,162.579147 306.172180,163.085495 310.578674,163.645508 
	C310.578674,171.461273 310.578674,178.900101 310.578644,186.806519 
z"/>
<path fill="#FDFDFD" opacity="1.000000" stroke="none" 
	d="
M1625.757080,190.442230 
	C1614.508423,182.124664 1613.733276,170.318665 1614.367065,158.325638 
	C1614.615356,153.628006 1616.078491,148.819672 1617.861816,144.415482 
	C1621.278320,135.978439 1627.661133,131.238190 1637.071899,131.132339 
	C1646.498657,131.026321 1653.008667,135.705002 1656.581055,144.013748 
	C1661.652344,155.808533 1661.918457,168.088196 1657.145874,179.976196 
	C1651.948975,192.921478 1639.597656,196.870270 1625.757080,190.442230 
z"/>
<path fill="#FCFEFC" opacity="1.000000" stroke="none" 
	d="
M500.931030,135.017944 
	C503.487305,143.462585 505.953186,151.514496 508.509460,159.861526 
	C496.709137,159.861526 485.474060,159.861526 474.265350,159.861526 
	C479.762329,139.455444 485.194000,119.291786 490.815552,98.423363 
	C494.246704,110.813675 497.543671,122.719452 500.931030,135.017944 
z"/>
<path fill="#FCFCFC" opacity="1.000000" stroke="none" 
	d="
M1944.620361,152.159500 
	C1930.735107,152.159668 1917.306519,152.159668 1903.871338,152.159668 
	C1904.198975,139.884155 1912.572021,130.685135 1923.841675,129.838760 
	C1937.768311,128.792847 1945.682739,135.609848 1948.667358,151.632141 
	C1947.465698,151.808594 1946.271362,151.983963 1944.620361,152.159500 
z"/>
<path fill="#FBFEFB" opacity="1.000000" stroke="none" 
	d="
M1043.479980,174.224045 
	C1053.393555,172.177689 1062.941772,170.263794 1072.698364,168.308151 
	C1073.029297,176.630798 1073.753174,184.865982 1067.425537,191.738098 
	C1061.440552,198.237961 1049.239380,201.024231 1041.246704,197.300293 
	C1036.907593,195.278625 1034.014160,192.147385 1033.819702,187.024963 
	C1033.630005,182.024612 1035.761963,178.416428 1040.043213,175.986176 
	C1041.050659,175.414291 1042.089966,174.898270 1043.479980,174.224045 
z"/>
</svg>