<svg version="1.1" id="Layer_1" xmlns="http://www.w3.org/2000/svg" xmlns:xlink="http://www.w3.org/1999/xlink" x="0px" y="0px"
	 width="100%" viewBox="0 0 2038 310" enable-background="new 0 0 2038 310" xml:space="preserve">
<path fill="#000100" opacity="1.000000" stroke="none" 
	d="
M1933.000000,311.000000 
	C1288.666626,311.000000 644.833313,311.000000 1.000000,311.000000 
	C1.000000,207.666672 1.000000,104.333336 1.000000,1.000000 
	C680.333313,1.000000 1359.666626,1.000000 2039.000000,1.000000 
	C2039.000000,104.333336 2039.000000,207.666672 2039.000000,311.000000 
	C2003.833374,311.000000 1968.666626,311.000000 1933.000000,311.000000 
M86.755875,156.219681 
	C82.659401,156.864578 78.567627,157.541504 74.465004,158.144623 
	C70.929596,158.664368 68.045403,159.860321 67.374092,163.923126 
	C66.751602,167.690460 68.925797,169.571289 71.757828,171.411469 
	C77.824776,175.353638 84.073669,179.132721 89.618874,183.736420 
	C100.876282,193.082413 109.678963,204.458618 115.549866,217.980042 
	C116.905212,221.101593 118.587601,224.084732 122.633629,223.936676 
	C126.949883,223.778732 128.243271,220.461761 129.447845,217.060471 
	C130.994553,212.693085 132.684052,208.376495 134.280457,204.026443 
	C139.637573,189.428696 144.980682,174.825806 150.383743,160.075867 
	C166.712112,158.742722 182.575455,157.097946 198.481155,156.227081 
	C225.459808,154.749969 252.312531,156.919403 279.123749,159.840866 
	C282.429535,160.201065 283.944000,161.338745 285.077118,164.455215 
	C291.624634,182.463165 298.472931,200.361526 305.089478,218.344803 
	C306.318695,221.685715 308.413666,224.437729 311.792816,223.680283 
	C314.221832,223.135803 317.066315,220.706970 318.128693,218.387436 
	C327.672974,197.548935 342.704987,182.028564 362.685181,171.093323 
	C367.256775,168.591263 368.335052,162.921646 364.532227,160.053360 
	C362.921631,158.838562 360.578461,158.349533 358.493378,158.047363 
	C337.784241,155.046097 317.069763,152.075592 296.327759,149.314651 
	C293.283844,148.909470 291.772827,147.788849 290.544128,144.989944 
	C282.433441,126.514069 273.020874,108.809219 258.633545,94.279663 
	C244.713440,80.221970 228.437927,72.519524 208.148331,75.911339 
	C190.626297,78.840492 178.369736,89.758492 167.669952,102.862923 
	C157.145645,115.752457 150.072647,130.683594 142.884277,145.542557 
	C142.167099,147.025024 140.374481,148.749603 138.873596,148.973907 
	C121.818542,151.522629 104.723076,153.800949 86.755875,156.219681 
M1689.879150,156.500046 
	C1689.879150,140.546997 1689.879150,124.593941 1689.879150,108.497452 
	C1679.877075,108.497452 1670.345581,108.497452 1660.296875,108.497452 
	C1660.296875,114.397743 1660.296875,119.943756 1660.296875,125.396782 
	C1659.611938,125.484322 1659.339233,125.572021 1659.305298,125.515671 
	C1658.789429,124.660675 1658.348022,123.759003 1657.806763,122.921509 
	C1653.028809,115.528328 1646.737061,110.118271 1637.994751,108.003624 
	C1619.735840,103.587120 1600.960815,111.842079 1591.478271,128.195541 
	C1583.203735,142.465775 1582.392700,158.040848 1584.066406,173.729080 
	C1586.112427,192.908127 1594.521606,208.318039 1614.235474,214.348801 
	C1630.643921,219.368347 1649.453491,216.859589 1658.165405,199.852768 
	C1658.385254,199.423935 1659.071533,199.234070 1660.050659,198.604385 
	C1660.050659,206.860947 1660.812622,214.583893 1659.760376,222.051208 
	C1659.144897,226.419571 1656.490479,231.286758 1653.254639,234.342575 
	C1645.578491,241.591446 1622.149658,241.854507 1614.604004,229.355057 
	C1614.018188,228.384384 1612.505859,227.048325 1611.768066,227.235718 
	C1603.633179,229.301865 1595.566528,231.636368 1587.283691,233.953506 
	C1591.031616,245.014145 1598.346558,251.718369 1608.050171,255.884796 
	C1622.779541,262.209137 1638.132690,262.371796 1653.605591,259.478424 
	C1675.821899,255.324020 1690.702515,240.233017 1689.983032,214.494080 
	C1689.452393,195.509949 1689.879150,176.499039 1689.879150,156.500046 
M433.366699,182.814667 
	C429.452759,194.352432 425.538818,205.890182 421.444824,217.958755 
	C431.906708,217.958755 441.389709,217.807938 450.863342,218.040634 
	C454.173645,218.121964 455.450439,216.909348 456.344360,213.867462 
	C458.874084,205.259262 461.927307,196.803940 464.413147,188.184265 
	C465.332031,184.998108 466.824554,184.094009 470.005127,184.129517 
	C484.157074,184.287521 498.313965,184.331985 512.463928,184.101990 
	C515.932495,184.045593 517.399658,185.140472 518.401733,188.375000 
	C521.449219,198.211853 524.827698,207.946152 528.100403,217.789673 
	C539.293030,217.789673 550.245850,217.789673 561.457886,217.789673 
	C561.162415,216.462158 561.025513,215.311523 560.651550,214.243958 
	C544.491516,168.112198 528.288757,121.995369 512.186646,75.843422 
	C511.238739,73.126373 510.134125,71.856270 506.995453,71.919647 
	C496.342865,72.134750 485.680786,72.129753 475.027924,71.922417 
	C471.904694,71.861633 470.788513,73.078476 469.851990,75.844460 
	C457.853577,111.279732 445.729797,146.672546 433.366699,182.814667 
M1352.532959,167.499664 
	C1352.532959,184.258957 1352.532959,201.018250 1352.532959,217.709167 
	C1385.641724,217.709167 1418.066772,217.709167 1450.529053,217.709167 
	C1450.529053,209.364883 1450.529053,201.288040 1450.529053,192.727478 
	C1428.047119,192.727478 1405.802979,192.727478 1383.488037,192.727478 
	C1383.488037,180.518494 1383.488037,168.800095 1383.488037,156.615662 
	C1404.219116,156.615662 1424.627808,156.615662 1445.089111,156.615662 
	C1445.089111,148.207748 1445.089111,140.272003 1445.089111,131.684219 
	C1424.357300,131.684219 1403.828979,131.684219 1383.444580,131.684219 
	C1383.444580,119.932823 1383.444580,108.837791 1383.444580,97.153526 
	C1405.934937,97.153526 1428.150635,97.153526 1450.414673,97.153526 
	C1450.414673,88.476761 1450.414673,80.398933 1450.414673,72.294861 
	C1417.708496,72.294861 1385.312744,72.294861 1352.532959,72.294861 
	C1352.532959,103.890549 1352.532959,135.195099 1352.532959,167.499664 
M1913.464966,193.203079 
	C1905.958252,187.787521 1903.743286,179.999649 1903.112183,170.860397 
	C1928.197754,170.860397 1952.766724,170.860397 1977.481934,170.860397 
	C1977.481934,165.494949 1977.816772,160.509216 1977.423828,155.581482 
	C1975.766357,134.790665 1967.220215,117.943642 1946.713135,110.667328 
	C1925.803345,103.248116 1905.546143,105.230980 1888.865845,121.625511 
	C1876.834961,133.450333 1873.386719,148.658768 1873.581055,165.038055 
	C1873.734741,177.986664 1876.547485,190.020767 1884.245972,200.709442 
	C1900.783569,223.670853 1936.996582,224.284851 1956.466553,213.730469 
	C1966.214355,208.446335 1972.966431,200.736740 1976.085571,189.659103 
	C1968.507812,188.193939 1961.326782,186.960999 1954.226929,185.366547 
	C1950.719238,184.578827 1948.807983,185.225204 1946.614624,188.490875 
	C1944.539062,191.581024 1940.990479,194.311127 1937.494141,195.690308 
	C1929.561768,198.819382 1921.540649,198.047501 1913.464966,193.203079 
M1819.592773,107.039932 
	C1804.824829,106.848763 1794.919678,114.763000 1787.825195,127.362282 
	C1787.494873,127.055634 1787.164551,126.748993 1786.834229,126.442352 
	C1786.834229,120.526230 1786.834229,114.610100 1786.834229,108.416763 
	C1777.316040,108.416763 1768.227051,108.416763 1758.780762,108.416763 
	C1758.780762,144.885254 1758.780762,181.275070 1758.780762,217.822449 
	C1768.626099,217.822449 1778.256958,217.822449 1788.402954,217.822449 
	C1788.402954,215.928818 1788.402954,214.132019 1788.403076,212.335220 
	C1788.404297,192.840637 1788.269897,173.344772 1788.454956,153.851929 
	C1788.577148,140.980698 1797.088867,132.135391 1808.917114,132.004913 
	C1820.805664,131.873779 1827.841553,139.359894 1828.564697,152.942566 
	C1828.653198,154.604538 1828.635620,156.273163 1828.636108,157.938705 
	C1828.640625,176.100327 1828.639160,194.261932 1828.639160,212.423553 
	C1828.639160,214.201431 1828.639038,215.979309 1828.639038,217.676971 
	C1838.974609,217.676971 1848.728760,217.676971 1858.823486,217.676971 
	C1858.823486,195.580307 1858.831787,173.784424 1858.812744,151.988556 
	C1858.810425,149.324905 1858.828125,146.644196 1858.554688,144.000519 
	C1856.061646,119.893707 1842.872070,107.102066 1819.592773,107.039932 
M1498.292480,184.500519 
	C1498.292969,174.341995 1498.184692,164.181992 1498.321289,154.025299 
	C1498.493652,141.212189 1506.847778,132.269791 1518.650269,132.004868 
	C1530.534790,131.738083 1537.968018,139.152817 1538.340576,152.753510 
	C1538.773438,168.561874 1538.508667,184.389435 1538.539429,200.208664 
	C1538.550659,206.008347 1538.541260,211.808060 1538.541260,217.753540 
	C1548.750366,217.753540 1558.494385,217.753540 1568.492432,217.753540 
	C1568.586426,216.759781 1568.726929,215.965256 1568.727173,215.170715 
	C1568.734985,192.855392 1568.900757,170.537781 1568.603516,148.226364 
	C1568.529297,142.652817 1567.611206,136.893860 1565.944702,131.576294 
	C1561.556274,117.575531 1551.638184,109.223335 1537.171509,107.344131 
	C1523.221680,105.532074 1510.639404,108.599838 1501.973511,121.029060 
	C1500.607178,122.988800 1499.283447,124.978226 1497.940063,126.953918 
	C1497.616211,126.879280 1497.292358,126.804634 1496.968506,126.729988 
	C1496.968506,120.717415 1496.968506,114.704834 1496.968506,108.495636 
	C1487.148560,108.495636 1477.957520,108.495636 1468.571289,108.495636 
	C1468.571289,145.094711 1468.571289,181.319794 1468.571289,217.701111 
	C1478.556396,217.701111 1488.265381,217.701111 1498.292358,217.701111 
	C1498.292358,206.784210 1498.292358,196.142380 1498.292480,184.500519 
M1074.218262,207.132324 
	C1074.218262,210.587601 1074.218262,214.042877 1074.218262,217.633743 
	C1083.756958,217.633743 1092.809570,217.633743 1101.844238,217.633743 
	C1102.007080,216.841141 1102.190796,216.363525 1102.191040,215.885818 
	C1102.206421,190.735733 1102.439819,165.582520 1102.100586,140.437027 
	C1101.951294,129.354050 1096.541626,120.533165 1086.895386,115.021896 
	C1069.309937,104.974915 1050.730713,104.421204 1032.030884,111.258804 
	C1020.054077,115.638153 1011.831299,124.116356 1008.081299,137.225815 
	C1016.058655,138.583633 1023.568787,139.818832 1031.060181,141.158646 
	C1033.980835,141.681000 1035.710815,140.979752 1037.425415,138.154266 
	C1042.694580,129.471451 1058.051270,126.138115 1066.317383,132.014450 
	C1068.888062,133.841858 1071.036499,137.232758 1071.878784,140.317383 
	C1073.564941,146.492615 1071.562744,149.284317 1065.306763,150.818558 
	C1061.932861,151.646011 1058.382690,151.728455 1054.970825,152.432510 
	C1043.954590,154.705841 1032.533569,155.932388 1022.075317,159.764328 
	C1008.958801,164.570267 1004.187744,175.878754 1004.936340,189.488464 
	C1005.649841,202.459061 1011.645020,211.907471 1023.865540,216.971695 
	C1037.833740,222.760178 1061.418945,221.753036 1071.780151,205.901840 
	C1072.721680,204.461639 1073.920288,203.054672 1074.218262,207.132324 
M1191.894531,167.500565 
	C1191.894531,184.235672 1191.894531,200.970779 1191.894531,217.637909 
	C1202.395142,217.637909 1211.982544,217.637909 1221.998291,217.637909 
	C1221.998291,205.194138 1222.110840,193.064163 1221.968872,180.937149 
	C1221.803223,166.793671 1222.317505,152.559738 1220.871094,138.536804 
	C1219.404785,124.318077 1211.627441,113.448952 1197.360962,109.101913 
	C1182.962646,104.714668 1169.259888,106.002640 1158.226318,117.629761 
	C1155.342529,120.668716 1153.256592,124.464928 1150.029785,129.002563 
	C1150.029785,121.439674 1150.029785,115.081070 1150.029785,108.524467 
	C1140.370361,108.524467 1131.315796,108.524467 1122.146118,108.524467 
	C1122.146118,145.108124 1122.146118,181.331100 1122.146118,217.548355 
	C1132.190308,217.548355 1141.893433,217.548355 1151.504517,217.548355 
	C1151.655273,216.818619 1151.779175,216.497726 1151.779419,216.176697 
	C1151.801514,196.015640 1151.760376,175.854263 1151.879395,155.693832 
	C1151.898926,152.399521 1152.221191,148.998474 1153.096436,145.838776 
	C1155.410400,137.486252 1163.797363,131.801056 1172.880371,132.005188 
	C1182.534790,132.222137 1189.277710,137.131454 1190.966431,146.637131 
	C1192.116333,153.109070 1191.642334,159.869522 1191.894531,167.500565 
M752.367065,114.052879 
	C740.308167,106.981750 727.075806,106.179169 713.673218,107.384903 
	C704.320557,108.226303 695.424011,110.968277 687.822205,116.929031 
	C671.943115,129.380280 672.106384,154.544525 688.780151,164.771179 
	C695.132690,168.667435 702.832764,170.535736 710.100098,172.726364 
	C718.186829,175.163986 726.550293,176.679245 734.651245,179.076080 
	C738.149292,180.111069 741.091675,183.106308 740.133362,186.976852 
	C739.381836,190.011978 737.409851,193.631577 734.873535,195.186096 
	C723.313110,202.271423 708.246948,197.587036 702.150940,185.646713 
	C701.632935,184.631943 700.350586,183.120148 699.634338,183.228958 
	C691.005432,184.539703 682.416382,186.112549 673.592896,187.656250 
	C675.053650,196.979370 679.233765,203.918945 685.923950,209.362167 
	C694.239380,216.127792 704.073486,219.061920 714.537537,219.860870 
	C730.691162,221.094208 746.125061,219.081726 759.410034,208.630615 
	C775.095825,196.290787 777.157776,167.101212 752.268066,158.242279 
	C744.334717,155.418610 735.908020,153.983032 727.710938,151.897385 
	C722.569153,150.589111 717.193176,149.828003 712.352539,147.796295 
	C704.877258,144.658783 704.123230,136.517868 710.421326,131.924759 
	C719.558533,125.261139 734.954956,128.581360 740.597900,138.331955 
	C741.222351,139.410919 742.706726,140.916107 743.576172,140.785446 
	C751.708435,139.563339 759.793396,138.027130 768.141418,136.537308 
	C766.112793,126.497993 760.741760,119.647942 752.367065,114.052879 
M599.245605,138.734451 
	C600.835632,136.321274 601.902588,133.153381 604.106506,131.626083 
	C613.464600,125.141037 627.839539,128.764664 633.698303,138.550491 
	C634.317139,139.584229 635.885498,140.904816 636.812561,140.764633 
	C644.820618,139.553711 652.782593,138.038208 661.188660,136.536591 
	C658.724548,125.225266 652.389221,117.593697 642.691345,112.656334 
	C630.971680,106.689621 618.391113,106.218407 605.669983,107.548775 
	C596.616333,108.495590 588.113037,111.216850 580.804688,116.940788 
	C564.910400,129.389206 565.092102,154.502853 581.780212,164.771515 
	C588.124756,168.675476 595.830505,170.536713 603.097290,172.727203 
	C611.183777,175.164780 619.547791,176.677811 627.647278,179.078278 
	C631.138306,180.112946 634.090698,183.100113 633.120239,186.980637 
	C632.361206,190.015945 630.398193,193.636368 627.862915,195.189407 
	C616.300293,202.272430 601.219666,197.581741 595.140381,185.646027 
	C594.623047,184.630386 593.341980,183.115005 592.627563,183.223770 
	C583.999695,184.537338 575.411682,186.113037 566.586365,187.660248 
	C568.043457,196.984131 572.227478,203.917877 578.917175,209.362717 
	C587.232361,216.130569 597.064331,219.061279 607.528076,219.859024 
	C623.680603,221.090515 639.213684,219.211319 652.369263,208.594269 
	C666.205444,197.427979 668.194336,176.850433 656.611572,165.265366 
	C650.769287,159.421936 643.202637,156.736588 635.340881,154.939148 
	C626.438416,152.903778 617.456238,151.212326 608.571289,149.107513 
	C603.574463,147.923798 599.700989,145.239319 599.245605,138.734451 
M883.324951,220.118591 
	C894.964600,219.137360 905.833252,216.188873 915.330200,208.872543 
	C931.245117,196.611893 933.395752,167.029755 908.336304,158.127899 
	C902.260559,155.969589 895.875671,154.663437 889.604492,153.078186 
	C882.683350,151.328629 875.658386,149.950211 868.818115,147.936401 
	C865.077881,146.835281 862.076416,143.719757 862.740967,139.778336 
	C863.253662,136.737640 865.284485,133.058228 867.789856,131.406967 
	C877.326172,125.121796 891.112793,128.867783 896.918884,138.575882 
	C897.535278,139.606552 899.143616,140.885666 900.094543,140.742218 
	C908.085754,139.536774 916.030884,138.026108 923.938538,136.616455 
	C922.858032,126.435936 915.729248,116.760460 904.862793,112.210350 
	C886.278992,104.428780 867.384094,104.439537 849.326111,113.568153 
	C829.005981,123.840340 826.010681,151.610703 844.012024,164.019135 
	C850.479553,168.477234 858.848572,170.389664 866.566528,172.757660 
	C873.537109,174.896347 880.872620,175.819839 887.914673,177.760300 
	C892.555664,179.039124 896.610474,181.570236 896.702698,187.265564 
	C896.772644,191.588348 893.273987,195.604141 887.334167,196.901794 
	C876.665771,199.232498 863.872986,199.728714 856.909912,182.903091 
	C847.977356,184.472519 838.946899,186.059158 829.656982,187.691376 
	C831.800171,198.899582 837.325684,206.788055 846.309204,212.315063 
	C857.409790,219.144623 869.702271,220.500397 883.324951,220.118591 
M1245.812622,96.484039 
	C1245.812622,100.253471 1245.812622,104.022911 1245.812622,108.319977 
	C1240.565796,108.319977 1235.977417,108.319977 1231.309692,108.319977 
	C1231.309692,116.222603 1231.309692,123.577255 1231.309692,131.381042 
	C1236.332886,131.381042 1240.918213,131.381042 1245.559448,131.381042 
	C1245.672852,132.477783 1245.797607,133.124786 1245.798096,133.771896 
	C1245.812012,151.591309 1245.758301,169.410950 1245.837036,187.230026 
	C1245.883789,197.791458 1248.085083,207.650986 1257.721802,213.773376 
	C1270.028076,221.591873 1283.443604,220.248444 1296.841431,217.428741 
	C1297.653442,217.257828 1298.826538,215.472488 1298.685181,214.630737 
	C1297.570557,207.987900 1296.176636,201.391907 1294.847046,194.671478 
	C1292.348267,194.951111 1290.539917,195.164352 1288.729004,195.354340 
	C1278.893066,196.386215 1275.906128,193.783920 1275.882690,183.990723 
	C1275.843872,167.836761 1275.861938,151.682632 1275.883179,135.528610 
	C1275.885132,134.109039 1276.088623,132.689728 1276.233154,130.821228 
	C1283.048706,130.821228 1289.456055,130.821228 1295.740234,130.821228 
	C1295.740234,123.098831 1295.740234,115.871269 1295.740234,108.048340 
	C1288.960449,108.048340 1282.568359,108.048340 1275.699463,108.048340 
	C1275.699463,99.194481 1275.699463,90.944489 1275.699463,82.608154 
	C1265.517456,82.608154 1255.836670,82.608154 1245.812500,82.608154 
	C1245.812500,87.198578 1245.812500,91.347145 1245.812622,96.484039 
M996.259949,120.494537 
	C996.259949,119.495155 996.259888,118.495766 996.259888,117.496384 
	C996.259705,108.164856 996.259766,108.164848 987.151855,108.164825 
	C983.547913,108.164810 979.944031,108.164825 975.688110,108.164825 
	C975.688110,99.163651 975.688110,90.789223 975.688110,82.576248 
	C965.434631,82.576248 955.862366,82.576248 945.837646,82.576248 
	C945.837646,91.239403 945.837646,99.498482 945.837646,108.425797 
	C940.671326,108.425797 935.958801,108.425797 931.379883,108.425797 
	C931.379883,116.352272 931.379883,123.593475 931.379883,131.273712 
	C936.347229,131.273712 940.940796,131.273712 945.892456,131.273712 
	C945.892456,133.518524 945.892334,135.322754 945.892517,137.126984 
	C945.893921,153.784088 945.781616,170.442276 945.937317,187.097931 
	C946.039185,197.996674 948.407959,208.218689 958.597534,214.277908 
	C970.718445,221.485611 983.842224,220.175125 996.899231,217.441177 
	C997.748352,217.263382 998.922180,215.204666 998.764404,214.207748 
	C997.755310,207.832611 996.415649,201.509811 995.107300,194.771225 
	C992.547791,195.011841 990.273682,195.236694 987.997375,195.437683 
	C979.103149,196.223053 976.001953,193.482407 975.981506,184.657257 
	C975.943665,168.333389 975.959045,152.009354 975.978821,135.685425 
	C975.980530,134.254822 976.178223,132.824463 976.320557,130.915771 
	C983.091003,130.915771 989.502014,130.915771 996.260193,130.915771 
	C996.260193,127.435936 996.260193,124.459236 996.259949,120.494537 
M1739.162354,201.498352 
	C1739.162354,170.471176 1739.162354,139.444000 1739.162354,108.506096 
	C1728.694214,108.506096 1719.134521,108.506096 1709.437378,108.506096 
	C1709.437378,145.098709 1709.437378,181.308868 1709.437378,217.689392 
	C1719.429077,217.689392 1729.141846,217.689392 1739.162354,217.689392 
	C1739.162354,212.435104 1739.162354,207.466019 1739.162354,201.498352 
M815.121826,195.499939 
	C815.121826,166.570526 815.121826,137.641113 815.121826,108.161690 
	C806.465088,108.161690 798.491272,108.441803 790.550049,108.054573 
	C785.932739,107.829407 785.065247,109.529556 785.086304,113.765327 
	C785.249573,146.596283 785.172546,179.428406 785.186768,212.260178 
	C785.187500,214.039536 785.339783,215.818832 785.424744,217.667633 
	C795.488220,217.667633 805.068726,217.667633 815.121887,217.667633 
	C815.121887,210.421021 815.121887,203.460449 815.121826,195.499939 
M1711.279785,69.888397 
	C1710.744507,70.728218 1710.133667,71.529846 1709.685913,72.413994 
	C1706.492554,78.719681 1707.853516,85.955612 1713.057617,90.527977 
	C1718.757568,95.535873 1727.580688,96.042702 1733.936035,91.727058 
	C1739.861084,87.703682 1742.295898,80.770088 1739.853271,74.218681 
	C1735.506958,62.561680 1719.355225,60.572151 1711.279785,69.888397 
M787.794800,69.358017 
	C787.133606,70.307961 786.376343,71.205696 785.826965,72.216408 
	C782.497375,78.341866 783.760620,85.690910 788.892090,90.337952 
	C794.610962,95.516937 803.675171,96.034004 810.091675,91.547272 
	C815.907288,87.480698 818.186584,80.406570 815.747559,73.993073 
	C811.708801,63.372971 798.126221,60.805668 787.794800,69.358017 
z"/>
<path fill="#EAEAEA" opacity="1.000000" stroke="none" 
	d="
M87.197151,156.185638 
	C104.723076,153.800949 121.818542,151.522629 138.873596,148.973907 
	C140.374481,148.749603 142.167099,147.025024 142.884277,145.542557 
	C150.072647,130.683594 157.145645,115.752457 167.669952,102.862923 
	C178.369736,89.758492 190.626297,78.840492 208.148331,75.911339 
	C228.437927,72.519524 244.713440,80.221970 258.633545,94.279663 
	C273.020874,108.809219 282.433441,126.514069 290.544128,144.989944 
	C291.772827,147.788849 293.283844,148.909470 296.327759,149.314651 
	C317.069763,152.075592 337.784241,155.046097 358.493378,158.047363 
	C360.578461,158.349533 362.921631,158.838562 364.532227,160.053360 
	C368.335052,162.921646 367.256775,168.591263 362.685181,171.093323 
	C342.704987,182.028564 327.672974,197.548935 318.128693,218.387436 
	C317.066315,220.706970 314.221832,223.135803 311.792816,223.680283 
	C308.413666,224.437729 306.318695,221.685715 305.089478,218.344803 
	C298.472931,200.361526 291.624634,182.463165 285.077118,164.455215 
	C283.944000,161.338745 282.429535,160.201065 279.123749,159.840866 
	C252.312531,156.919403 225.459808,154.749969 198.481155,156.227081 
	C182.575455,157.097946 166.712112,158.742722 150.383743,160.075867 
	C144.980682,174.825806 139.637573,189.428696 134.280457,204.026443 
	C132.684052,208.376495 130.994553,212.693085 129.447845,217.060471 
	C128.243271,220.461761 126.949883,223.778732 122.633629,223.936676 
	C118.587601,224.084732 116.905212,221.101593 115.549866,217.980042 
	C109.678963,204.458618 100.876282,193.082413 89.618874,183.736420 
	C84.073669,179.132721 77.824776,175.353638 71.757828,171.411469 
	C68.925797,169.571289 66.751602,167.690460 67.374092,163.923126 
	C68.045403,159.860321 70.929596,158.664368 74.465004,158.144623 
	C78.567627,157.541504 82.659401,156.864578 87.197151,156.185638 
M222.084335,88.091812 
	C218.600098,88.097778 215.113831,88.032906 211.632278,88.132538 
	C208.935150,88.209717 207.683060,89.333809 207.716858,92.443443 
	C207.892395,108.588936 207.794250,124.737343 207.824585,140.884659 
	C207.826004,141.640884 208.144394,142.396500 208.307938,143.120407 
	C214.329636,143.120407 220.082428,143.120407 226.201080,143.120407 
	C226.201080,125.804436 226.260895,108.687927 226.063614,91.574379 
	C226.050766,90.459000 224.064896,89.366379 222.084335,88.091812 
M248.228256,118.502144 
	C248.228226,114.008514 248.313446,109.512299 248.177124,105.022804 
	C248.135269,103.644394 247.934387,101.725388 247.040939,101.010422 
	C242.607742,97.462860 237.918655,94.235062 232.840363,90.546425 
	C232.840363,109.008781 232.840363,126.327347 232.840363,143.741272 
	C238.053955,143.976196 242.825867,144.191223 248.228271,144.434647 
	C248.228271,136.043625 248.228271,127.772423 248.228256,118.502144 
M185.773331,112.534676 
	C185.773331,123.125435 185.773331,133.716187 185.773331,144.461685 
	C191.256012,144.185379 196.149490,143.938766 201.244446,143.682007 
	C201.244446,126.205803 201.244446,109.063644 201.244446,91.752579 
	C188.919220,97.593063 184.312012,99.576172 185.773331,112.534676 
M173.963318,145.621780 
	C175.735947,145.346924 177.508591,145.072067 179.623734,144.744095 
	C179.623734,133.483612 179.626938,122.382736 179.614731,111.281860 
	C179.614090,110.697273 179.482819,110.112839 179.372391,109.196594 
	C170.822372,118.649117 158.270401,140.116409 157.211014,147.034225 
	C162.527145,146.606033 167.800339,146.181290 173.963318,145.621780 
M265.933350,124.591057 
	C262.487854,119.584869 259.042328,114.578682 255.596832,109.572502 
	C255.288269,109.777405 254.979706,109.982315 254.671143,110.187218 
	C254.671143,121.711815 254.671143,133.236404 254.671143,145.022339 
	C262.235107,145.723785 269.529022,146.400192 278.034058,147.188904 
	C273.754669,139.144745 270.045502,132.172394 265.933350,124.591057 
M321.260223,164.996567 
	C319.863159,164.924255 318.466095,164.851929 317.076691,164.779999 
	C317.076691,174.719742 317.076691,184.221420 317.076691,193.086029 
	C325.319641,184.822922 333.726837,176.395187 342.063324,168.038315 
	C335.644287,167.086090 328.926331,166.089539 321.260223,164.996567 
M117.218811,183.441986 
	C117.218811,177.192307 117.218811,170.942612 117.218811,164.403519 
	C108.387161,165.666351 100.252121,166.829559 94.380569,167.669128 
	C101.953079,175.220261 110.239471,183.483246 118.525864,191.746246 
	C118.090179,192.274002 117.654495,192.801758 117.218811,193.329514 
	C117.218811,190.358032 117.218811,187.386551 117.218811,183.441986 
M307.116394,187.511322 
	C308.070679,189.937500 309.024994,192.363678 310.353149,195.740341 
	C310.353149,184.289444 310.353149,174.043747 310.353149,163.544220 
	C306.108032,163.015137 302.148438,162.521652 297.807098,161.980591 
	C300.990295,170.699356 303.924835,178.736969 307.116394,187.511322 
M126.631248,188.187698 
	C129.759354,179.585907 132.887451,170.984116 136.167282,161.965057 
	C132.541687,162.389679 129.598297,162.929337 126.640808,163.022812 
	C123.987984,163.106628 123.261963,164.249481 123.289429,166.739639 
	C123.391426,175.987610 123.330086,185.237366 123.330086,194.486450 
	C123.573326,194.547104 123.816566,194.607758 124.059807,194.668411 
	C124.814232,192.740402 125.568649,190.812393 126.631248,188.187698 
z"/>
<path fill="#F1F1F2" opacity="1.000000" stroke="none" 
	d="
M1689.879150,157.000061 
	C1689.879150,176.499039 1689.452393,195.509949 1689.983032,214.494080 
	C1690.702515,240.233017 1675.821899,255.324020 1653.605591,259.478424 
	C1638.132690,262.371796 1622.779541,262.209137 1608.050171,255.884796 
	C1598.346558,251.718369 1591.031616,245.014145 1587.283691,233.953506 
	C1595.566528,231.636368 1603.633179,229.301865 1611.768066,227.235718 
	C1612.505859,227.048325 1614.018188,228.384384 1614.604004,229.355057 
	C1622.149658,241.854507 1645.578491,241.591446 1653.254639,234.342575 
	C1656.490479,231.286758 1659.144897,226.419571 1659.760376,222.051208 
	C1660.812622,214.583893 1660.050659,206.860947 1660.050659,198.604385 
	C1659.071533,199.234070 1658.385254,199.423935 1658.165405,199.852768 
	C1649.453491,216.859589 1630.643921,219.368347 1614.235474,214.348801 
	C1594.521606,208.318039 1586.112427,192.908127 1584.066406,173.729080 
	C1582.392700,158.040848 1583.203735,142.465775 1591.478271,128.195541 
	C1600.960815,111.842079 1619.735840,103.587120 1637.994751,108.003624 
	C1646.737061,110.118271 1653.028809,115.528328 1657.806763,122.921509 
	C1658.348022,123.759003 1658.789429,124.660675 1659.305298,125.515671 
	C1659.339233,125.572021 1659.611938,125.484322 1660.296875,125.396782 
	C1660.296875,119.943756 1660.296875,114.397743 1660.296875,108.497452 
	C1670.345581,108.497452 1679.877075,108.497452 1689.879150,108.497452 
	C1689.879150,124.593941 1689.879150,140.546997 1689.879150,157.000061 
M1658.773193,175.976517 
	C1660.878296,166.394791 1661.024780,156.825302 1658.073853,147.404419 
	C1655.002441,137.599106 1647.556274,131.421494 1638.896606,131.125381 
	C1628.310059,130.763382 1620.947388,135.476776 1617.072754,145.765854 
	C1612.949951,156.714478 1612.823730,167.903580 1616.763550,178.948883 
	C1618.900269,184.939209 1622.701904,189.639572 1628.916992,192.024368 
	C1641.881226,196.998749 1653.537231,191.016479 1658.773193,175.976517 
z"/>
<path fill="#3ADA74" opacity="1.000000" stroke="none" 
	d="
M433.502258,182.445389 
	C445.729797,146.672546 457.853577,111.279732 469.851990,75.844460 
	C470.788513,73.078476 471.904694,71.861633 475.027924,71.922417 
	C485.680786,72.129753 496.342865,72.134750 506.995453,71.919647 
	C510.134125,71.856270 511.238739,73.126373 512.186646,75.843422 
	C528.288757,121.995369 544.491516,168.112198 560.651550,214.243958 
	C561.025513,215.311523 561.162415,216.462158 561.457886,217.789673 
	C550.245850,217.789673 539.293030,217.789673 528.100403,217.789673 
	C524.827698,207.946152 521.449219,198.211853 518.401733,188.375000 
	C517.399658,185.140472 515.932495,184.045593 512.463928,184.101990 
	C498.313965,184.331985 484.157074,184.287521 470.005127,184.129517 
	C466.824554,184.094009 465.332031,184.998108 464.413147,188.184265 
	C461.927307,196.803940 458.874084,205.259262 456.344360,213.867462 
	C455.450439,216.909348 454.173645,218.121964 450.863342,218.040634 
	C441.389709,217.807938 431.906708,217.958755 421.444824,217.958755 
	C425.538818,205.890182 429.452759,194.352432 433.502258,182.445389 
M498.198181,125.232452 
	C495.834747,116.424416 493.471313,107.616371 490.864807,97.902435 
	C485.093658,119.259384 479.642395,139.432495 474.133484,159.818939 
	C485.504761,159.818939 496.817139,159.818939 508.523376,159.818939 
	C505.060303,148.238510 501.737732,137.127975 498.198181,125.232452 
z"/>
<path fill="#F3F3F4" opacity="1.000000" stroke="none" 
	d="
M1352.532959,166.999664 
	C1352.532959,135.195099 1352.532959,103.890549 1352.532959,72.294861 
	C1385.312744,72.294861 1417.708496,72.294861 1450.414673,72.294861 
	C1450.414673,80.398933 1450.414673,88.476761 1450.414673,97.153526 
	C1428.150635,97.153526 1405.934937,97.153526 1383.444580,97.153526 
	C1383.444580,108.837791 1383.444580,119.932823 1383.444580,131.684219 
	C1403.828979,131.684219 1424.357300,131.684219 1445.089111,131.684219 
	C1445.089111,140.272003 1445.089111,148.207748 1445.089111,156.615662 
	C1424.627808,156.615662 1404.219116,156.615662 1383.488037,156.615662 
	C1383.488037,168.800095 1383.488037,180.518494 1383.488037,192.727478 
	C1405.802979,192.727478 1428.047119,192.727478 1450.529053,192.727478 
	C1450.529053,201.288040 1450.529053,209.364883 1450.529053,217.709167 
	C1418.066772,217.709167 1385.641724,217.709167 1352.532959,217.709167 
	C1352.532959,201.018250 1352.532959,184.258957 1352.532959,166.999664 
z"/>
<path fill="#F1F1F2" opacity="1.000000" stroke="none" 
	d="
M1913.752441,193.436142 
	C1921.540649,198.047501 1929.561768,198.819382 1937.494141,195.690308 
	C1940.990479,194.311127 1944.539062,191.581024 1946.614624,188.490875 
	C1948.807983,185.225204 1950.719238,184.578827 1954.226929,185.366547 
	C1961.326782,186.960999 1968.507812,188.193939 1976.085571,189.659103 
	C1972.966431,200.736740 1966.214355,208.446335 1956.466553,213.730469 
	C1936.996582,224.284851 1900.783569,223.670853 1884.245972,200.709442 
	C1876.547485,190.020767 1873.734741,177.986664 1873.581055,165.038055 
	C1873.386719,148.658768 1876.834961,133.450333 1888.865845,121.625511 
	C1905.546143,105.230980 1925.803345,103.248116 1946.713135,110.667328 
	C1967.220215,117.943642 1975.766357,134.790665 1977.423828,155.581482 
	C1977.816772,160.509216 1977.481934,165.494949 1977.481934,170.860397 
	C1952.766724,170.860397 1928.197754,170.860397 1903.112183,170.860397 
	C1903.743286,179.999649 1905.958252,187.787521 1913.752441,193.436142 
M1919.503418,152.205826 
	C1929.212769,152.205826 1938.921997,152.205826 1948.750977,152.205826 
	C1946.141724,136.190979 1938.673584,129.377808 1924.999756,129.773972 
	C1913.146973,130.117386 1904.832764,138.644577 1903.586548,152.205826 
	C1908.586304,152.205826 1913.546143,152.205826 1919.503418,152.205826 
z"/>
<path fill="#F0F1F1" opacity="1.000000" stroke="none" 
	d="
M1820.062012,107.039886 
	C1842.872070,107.102066 1856.061646,119.893707 1858.554688,144.000519 
	C1858.828125,146.644196 1858.810425,149.324905 1858.812744,151.988556 
	C1858.831787,173.784424 1858.823486,195.580307 1858.823486,217.676971 
	C1848.728760,217.676971 1838.974609,217.676971 1828.639038,217.676971 
	C1828.639038,215.979309 1828.639160,214.201431 1828.639160,212.423553 
	C1828.639160,194.261932 1828.640625,176.100327 1828.636108,157.938705 
	C1828.635620,156.273163 1828.653198,154.604538 1828.564697,152.942566 
	C1827.841553,139.359894 1820.805664,131.873779 1808.917114,132.004913 
	C1797.088867,132.135391 1788.577148,140.980698 1788.454956,153.851929 
	C1788.269897,173.344772 1788.404297,192.840637 1788.403076,212.335220 
	C1788.402954,214.132019 1788.402954,215.928818 1788.402954,217.822449 
	C1778.256958,217.822449 1768.626099,217.822449 1758.780762,217.822449 
	C1758.780762,181.275070 1758.780762,144.885254 1758.780762,108.416763 
	C1768.227051,108.416763 1777.316040,108.416763 1786.834229,108.416763 
	C1786.834229,114.610100 1786.834229,120.526230 1786.834229,126.442352 
	C1787.164551,126.748993 1787.494873,127.055634 1787.825195,127.362282 
	C1794.919678,114.763000 1804.824829,106.848763 1820.062012,107.039886 
z"/>
<path fill="#F1F1F2" opacity="1.000000" stroke="none" 
	d="
M1498.292480,185.000534 
	C1498.292358,196.142380 1498.292358,206.784210 1498.292358,217.701111 
	C1488.265381,217.701111 1478.556396,217.701111 1468.571289,217.701111 
	C1468.571289,181.319794 1468.571289,145.094711 1468.571289,108.495636 
	C1477.957520,108.495636 1487.148560,108.495636 1496.968506,108.495636 
	C1496.968506,114.704834 1496.968506,120.717415 1496.968506,126.729988 
	C1497.292358,126.804634 1497.616211,126.879280 1497.940063,126.953918 
	C1499.283447,124.978226 1500.607178,122.988800 1501.973511,121.029060 
	C1510.639404,108.599838 1523.221680,105.532074 1537.171509,107.344131 
	C1551.638184,109.223335 1561.556274,117.575531 1565.944702,131.576294 
	C1567.611206,136.893860 1568.529297,142.652817 1568.603516,148.226364 
	C1568.900757,170.537781 1568.734985,192.855392 1568.727173,215.170715 
	C1568.726929,215.965256 1568.586426,216.759781 1568.492432,217.753540 
	C1558.494385,217.753540 1548.750366,217.753540 1538.541260,217.753540 
	C1538.541260,211.808060 1538.550659,206.008347 1538.539429,200.208664 
	C1538.508667,184.389435 1538.773438,168.561874 1538.340576,152.753510 
	C1537.968018,139.152817 1530.534790,131.738083 1518.650269,132.004868 
	C1506.847778,132.269791 1498.493652,141.212189 1498.321289,154.025299 
	C1498.184692,164.181992 1498.292969,174.341995 1498.292480,185.000534 
z"/>
<path fill="#3ADA74" opacity="1.000000" stroke="none" 
	d="
M1074.215576,206.717850 
	C1073.920288,203.054672 1072.721680,204.461639 1071.780151,205.901840 
	C1061.418945,221.753036 1037.833740,222.760178 1023.865540,216.971695 
	C1011.645020,211.907471 1005.649841,202.459061 1004.936340,189.488464 
	C1004.187744,175.878754 1008.958801,164.570267 1022.075317,159.764328 
	C1032.533569,155.932388 1043.954590,154.705841 1054.970825,152.432510 
	C1058.382690,151.728455 1061.932861,151.646011 1065.306763,150.818558 
	C1071.562744,149.284317 1073.564941,146.492615 1071.878784,140.317383 
	C1071.036499,137.232758 1068.888062,133.841858 1066.317383,132.014450 
	C1058.051270,126.138115 1042.694580,129.471451 1037.425415,138.154266 
	C1035.710815,140.979752 1033.980835,141.681000 1031.060181,141.158646 
	C1023.568787,139.818832 1016.058655,138.583633 1008.081299,137.225815 
	C1011.831299,124.116356 1020.054077,115.638153 1032.030884,111.258804 
	C1050.730713,104.421204 1069.309937,104.974915 1086.895386,115.021896 
	C1096.541626,120.533165 1101.951294,129.354050 1102.100586,140.437027 
	C1102.439819,165.582520 1102.206421,190.735733 1102.191040,215.885818 
	C1102.190796,216.363525 1102.007080,216.841141 1101.844238,217.633743 
	C1092.809570,217.633743 1083.756958,217.633743 1074.218262,217.633743 
	C1074.218262,214.042877 1074.218262,210.587601 1074.215576,206.717850 
M1072.614258,168.268814 
	C1064.302368,169.822525 1055.968262,171.269028 1047.692017,172.993774 
	C1045.133179,173.527008 1042.636475,174.625534 1040.279419,175.802139 
	C1035.653931,178.111069 1033.507324,181.978806 1033.733276,187.184647 
	C1033.956543,192.326950 1036.849243,195.699509 1041.316895,197.381546 
	C1055.595093,202.757080 1072.836792,194.479309 1072.894531,177.600525 
	C1072.904297,174.767654 1072.889282,171.934692 1072.614258,168.268814 
z"/>
<path fill="#3ADA74" opacity="1.000000" stroke="none" 
	d="
M1191.894531,167.000763 
	C1191.642334,159.869522 1192.116333,153.109070 1190.966431,146.637131 
	C1189.277710,137.131454 1182.534790,132.222137 1172.880371,132.005188 
	C1163.797363,131.801056 1155.410400,137.486252 1153.096436,145.838776 
	C1152.221191,148.998474 1151.898926,152.399521 1151.879395,155.693832 
	C1151.760376,175.854263 1151.801514,196.015640 1151.779419,216.176697 
	C1151.779175,216.497726 1151.655273,216.818619 1151.504517,217.548355 
	C1141.893433,217.548355 1132.190308,217.548355 1122.146118,217.548355 
	C1122.146118,181.331100 1122.146118,145.108124 1122.146118,108.524467 
	C1131.315796,108.524467 1140.370361,108.524467 1150.029785,108.524467 
	C1150.029785,115.081070 1150.029785,121.439674 1150.029785,129.002563 
	C1153.256592,124.464928 1155.342529,120.668716 1158.226318,117.629761 
	C1169.259888,106.002640 1182.962646,104.714668 1197.360962,109.101913 
	C1211.627441,113.448952 1219.404785,124.318077 1220.871094,138.536804 
	C1222.317505,152.559738 1221.803223,166.793671 1221.968872,180.937149 
	C1222.110840,193.064163 1221.998291,205.194138 1221.998291,217.637909 
	C1211.982544,217.637909 1202.395142,217.637909 1191.894531,217.637909 
	C1191.894531,200.970779 1191.894531,184.235672 1191.894531,167.000763 
z"/>
<path fill="#39D973" opacity="1.000000" stroke="none" 
	d="
M752.676392,114.245773 
	C760.741760,119.647942 766.112793,126.497993 768.141418,136.537308 
	C759.793396,138.027130 751.708435,139.563339 743.576172,140.785446 
	C742.706726,140.916107 741.222351,139.410919 740.597900,138.331955 
	C734.954956,128.581360 719.558533,125.261139 710.421326,131.924759 
	C704.123230,136.517868 704.877258,144.658783 712.352539,147.796295 
	C717.193176,149.828003 722.569153,150.589111 727.710938,151.897385 
	C735.908020,153.983032 744.334717,155.418610 752.268066,158.242279 
	C777.157776,167.101212 775.095825,196.290787 759.410034,208.630615 
	C746.125061,219.081726 730.691162,221.094208 714.537537,219.860870 
	C704.073486,219.061920 694.239380,216.127792 685.923950,209.362167 
	C679.233765,203.918945 675.053650,196.979370 673.592896,187.656250 
	C682.416382,186.112549 691.005432,184.539703 699.634338,183.228958 
	C700.350586,183.120148 701.632935,184.631943 702.150940,185.646713 
	C708.246948,197.587036 723.313110,202.271423 734.873535,195.186096 
	C737.409851,193.631577 739.381836,190.011978 740.133362,186.976852 
	C741.091675,183.106308 738.149292,180.111069 734.651245,179.076080 
	C726.550293,176.679245 718.186829,175.163986 710.100098,172.726364 
	C702.832764,170.535736 695.132690,168.667435 688.780151,164.771179 
	C672.106384,154.544525 671.943115,129.380280 687.822205,116.929031 
	C695.424011,110.968277 704.320557,108.226303 713.673218,107.384903 
	C727.075806,106.179169 740.308167,106.981750 752.676392,114.245773 
z"/>
<path fill="#39D973" opacity="1.000000" stroke="none" 
	d="
M599.208496,139.113525 
	C599.700989,145.239319 603.574463,147.923798 608.571289,149.107513 
	C617.456238,151.212326 626.438416,152.903778 635.340881,154.939148 
	C643.202637,156.736588 650.769287,159.421936 656.611572,165.265366 
	C668.194336,176.850433 666.205444,197.427979 652.369263,208.594269 
	C639.213684,219.211319 623.680603,221.090515 607.528076,219.859024 
	C597.064331,219.061279 587.232361,216.130569 578.917175,209.362717 
	C572.227478,203.917877 568.043457,196.984131 566.586365,187.660248 
	C575.411682,186.113037 583.999695,184.537338 592.627563,183.223770 
	C593.341980,183.115005 594.623047,184.630386 595.140381,185.646027 
	C601.219666,197.581741 616.300293,202.272430 627.862915,195.189407 
	C630.398193,193.636368 632.361206,190.015945 633.120239,186.980637 
	C634.090698,183.100113 631.138306,180.112946 627.647278,179.078278 
	C619.547791,176.677811 611.183777,175.164780 603.097290,172.727203 
	C595.830505,170.536713 588.124756,168.675476 581.780212,164.771515 
	C565.092102,154.502853 564.910400,129.389206 580.804688,116.940788 
	C588.113037,111.216850 596.616333,108.495590 605.669983,107.548775 
	C618.391113,106.218407 630.971680,106.689621 642.691345,112.656334 
	C652.389221,117.593697 658.724548,125.225266 661.188660,136.536591 
	C652.782593,138.038208 644.820618,139.553711 636.812561,140.764633 
	C635.885498,140.904816 634.317139,139.584229 633.698303,138.550491 
	C627.839539,128.764664 613.464600,125.141037 604.106506,131.626083 
	C601.902588,133.153381 600.835632,136.321274 599.208496,139.113525 
z"/>
<path fill="#3ADA73" opacity="1.000000" stroke="none" 
	d="
M882.845398,220.126343 
	C869.702271,220.500397 857.409790,219.144623 846.309204,212.315063 
	C837.325684,206.788055 831.800171,198.899582 829.656982,187.691376 
	C838.946899,186.059158 847.977356,184.472519 856.909912,182.903091 
	C863.872986,199.728714 876.665771,199.232498 887.334167,196.901794 
	C893.273987,195.604141 896.772644,191.588348 896.702698,187.265564 
	C896.610474,181.570236 892.555664,179.039124 887.914673,177.760300 
	C880.872620,175.819839 873.537109,174.896347 866.566528,172.757660 
	C858.848572,170.389664 850.479553,168.477234 844.012024,164.019135 
	C826.010681,151.610703 829.005981,123.840340 849.326111,113.568153 
	C867.384094,104.439537 886.278992,104.428780 904.862793,112.210350 
	C915.729248,116.760460 922.858032,126.435936 923.938538,136.616455 
	C916.030884,138.026108 908.085754,139.536774 900.094543,140.742218 
	C899.143616,140.885666 897.535278,139.606552 896.918884,138.575882 
	C891.112793,128.867783 877.326172,125.121796 867.789856,131.406967 
	C865.284485,133.058228 863.253662,136.737640 862.740967,139.778336 
	C862.076416,143.719757 865.077881,146.835281 868.818115,147.936401 
	C875.658386,149.950211 882.683350,151.328629 889.604492,153.078186 
	C895.875671,154.663437 902.260559,155.969589 908.336304,158.127899 
	C933.395752,167.029755 931.245117,196.611893 915.330200,208.872543 
	C905.833252,216.188873 894.964600,219.137360 882.845398,220.126343 
z"/>
<path fill="#3ADA74" opacity="1.000000" stroke="none" 
	d="
M1245.812500,95.989868 
	C1245.812500,91.347145 1245.812500,87.198578 1245.812500,82.608154 
	C1255.836670,82.608154 1265.517456,82.608154 1275.699463,82.608154 
	C1275.699463,90.944489 1275.699463,99.194481 1275.699463,108.048340 
	C1282.568359,108.048340 1288.960449,108.048340 1295.740234,108.048340 
	C1295.740234,115.871269 1295.740234,123.098831 1295.740234,130.821228 
	C1289.456055,130.821228 1283.048706,130.821228 1276.233154,130.821228 
	C1276.088623,132.689728 1275.885132,134.109039 1275.883179,135.528610 
	C1275.861938,151.682632 1275.843872,167.836761 1275.882690,183.990723 
	C1275.906128,193.783920 1278.893066,196.386215 1288.729004,195.354340 
	C1290.539917,195.164352 1292.348267,194.951111 1294.847046,194.671478 
	C1296.176636,201.391907 1297.570557,207.987900 1298.685181,214.630737 
	C1298.826538,215.472488 1297.653442,217.257828 1296.841431,217.428741 
	C1283.443604,220.248444 1270.028076,221.591873 1257.721802,213.773376 
	C1248.085083,207.650986 1245.883789,197.791458 1245.837036,187.230026 
	C1245.758301,169.410950 1245.812012,151.591309 1245.798096,133.771896 
	C1245.797607,133.124786 1245.672852,132.477783 1245.559448,131.381042 
	C1240.918213,131.381042 1236.332886,131.381042 1231.309692,131.381042 
	C1231.309692,123.577255 1231.309692,116.222603 1231.309692,108.319977 
	C1235.977417,108.319977 1240.565796,108.319977 1245.812622,108.319977 
	C1245.812622,104.022911 1245.812622,100.253471 1245.812500,95.989868 
z"/>
<path fill="#3ADA74" opacity="1.000000" stroke="none" 
	d="
M996.260071,120.988533 
	C996.260193,124.459236 996.260193,127.435936 996.260193,130.915771 
	C989.502014,130.915771 983.091003,130.915771 976.320557,130.915771 
	C976.178223,132.824463 975.980530,134.254822 975.978821,135.685425 
	C975.959045,152.009354 975.943665,168.333389 975.981506,184.657257 
	C976.001953,193.482407 979.103149,196.223053 987.997375,195.437683 
	C990.273682,195.236694 992.547791,195.011841 995.107300,194.771225 
	C996.415649,201.509811 997.755310,207.832611 998.764404,214.207748 
	C998.922180,215.204666 997.748352,217.263382 996.899231,217.441177 
	C983.842224,220.175125 970.718445,221.485611 958.597534,214.277908 
	C948.407959,208.218689 946.039185,197.996674 945.937317,187.097931 
	C945.781616,170.442276 945.893921,153.784088 945.892517,137.126984 
	C945.892334,135.322754 945.892456,133.518524 945.892456,131.273712 
	C940.940796,131.273712 936.347229,131.273712 931.379883,131.273712 
	C931.379883,123.593475 931.379883,116.352272 931.379883,108.425797 
	C935.958801,108.425797 940.671326,108.425797 945.837646,108.425797 
	C945.837646,99.498482 945.837646,91.239403 945.837646,82.576248 
	C955.862366,82.576248 965.434631,82.576248 975.688110,82.576248 
	C975.688110,90.789223 975.688110,99.163651 975.688110,108.164825 
	C979.944031,108.164825 983.547913,108.164810 987.151855,108.164825 
	C996.259766,108.164848 996.259705,108.164856 996.259888,117.496384 
	C996.259888,118.495766 996.259949,119.495155 996.260071,120.988533 
z"/>
<path fill="#F1F1F2" opacity="1.000000" stroke="none" 
	d="
M1739.162354,201.997650 
	C1739.162354,207.466019 1739.162354,212.435104 1739.162354,217.689392 
	C1729.141846,217.689392 1719.429077,217.689392 1709.437378,217.689392 
	C1709.437378,181.308868 1709.437378,145.098709 1709.437378,108.506096 
	C1719.134521,108.506096 1728.694214,108.506096 1739.162354,108.506096 
	C1739.162354,139.444000 1739.162354,170.471176 1739.162354,201.997650 
z"/>
<path fill="#3AD973" opacity="1.000000" stroke="none" 
	d="
M815.121826,195.999908 
	C815.121887,203.460449 815.121887,210.421021 815.121887,217.667633 
	C805.068726,217.667633 795.488220,217.667633 785.424744,217.667633 
	C785.339783,215.818832 785.187500,214.039536 785.186768,212.260178 
	C785.172546,179.428406 785.249573,146.596283 785.086304,113.765327 
	C785.065247,109.529556 785.932739,107.829407 790.550049,108.054573 
	C798.491272,108.441803 806.465088,108.161690 815.121826,108.161690 
	C815.121826,137.641113 815.121826,166.570526 815.121826,195.999908 
z"/>
<path fill="#EFEFF0" opacity="1.000000" stroke="none" 
	d="
M1711.525635,69.611862 
	C1719.355225,60.572151 1735.506958,62.561680 1739.853271,74.218681 
	C1742.295898,80.770088 1739.861084,87.703682 1733.936035,91.727058 
	C1727.580688,96.042702 1718.757568,95.535873 1713.057617,90.527977 
	C1707.853516,85.955612 1706.492554,78.719681 1709.685913,72.413994 
	C1710.133667,71.529846 1710.744507,70.728218 1711.525635,69.611862 
z"/>
<path fill="#39D873" opacity="1.000000" stroke="none" 
	d="
M788.038574,69.079880 
	C798.126221,60.805668 811.708801,63.372971 815.747559,73.993073 
	C818.186584,80.406570 815.907288,87.480698 810.091675,91.547272 
	C803.675171,96.034004 794.610962,95.516937 788.892090,90.337952 
	C783.760620,85.690910 782.497375,78.341866 785.826965,72.216408 
	C786.376343,71.205696 787.133606,70.307961 788.038574,69.079880 
z"/>
<path fill="#000000" opacity="1.000000" stroke="none" 
	d="
M222.540573,88.177490 
	C224.064896,89.366379 226.050766,90.459000 226.063614,91.574379 
	C226.260895,108.687927 226.201080,125.804436 226.201080,143.120407 
	C220.082428,143.120407 214.329636,143.120407 208.307938,143.120407 
	C208.144394,142.396500 207.826004,141.640884 207.824585,140.884659 
	C207.794250,124.737343 207.892395,108.588936 207.716858,92.443443 
	C207.683060,89.333809 208.935150,88.209717 211.632278,88.132538 
	C215.113831,88.032906 218.600098,88.097778 222.540573,88.177490 
z"/>
<path fill="#090909" opacity="1.000000" stroke="none" 
	d="
M248.228271,119.001686 
	C248.228271,127.772423 248.228271,136.043625 248.228271,144.434647 
	C242.825867,144.191223 238.053955,143.976196 232.840363,143.741272 
	C232.840363,126.327347 232.840363,109.008781 232.840363,90.546425 
	C237.918655,94.235062 242.607742,97.462860 247.040939,101.010422 
	C247.934387,101.725388 248.135269,103.644394 248.177124,105.022804 
	C248.313446,109.512299 248.228226,114.008514 248.228271,119.001686 
z"/>
<path fill="#090909" opacity="1.000000" stroke="none" 
	d="
M185.773315,112.042267 
	C184.312012,99.576172 188.919220,97.593063 201.244446,91.752579 
	C201.244446,109.063644 201.244446,126.205803 201.244446,143.682007 
	C196.149490,143.938766 191.256012,144.185379 185.773331,144.461685 
	C185.773331,133.716187 185.773331,123.125435 185.773315,112.042267 
z"/>
<path fill="#0E0E0E" opacity="1.000000" stroke="none" 
	d="
M173.518433,145.689178 
	C167.800339,146.181290 162.527145,146.606033 157.211014,147.034225 
	C158.270401,140.116409 170.822372,118.649117 179.372391,109.196594 
	C179.482819,110.112839 179.614090,110.697273 179.614731,111.281860 
	C179.626938,122.382736 179.623734,133.483612 179.623734,144.744095 
	C177.508591,145.072067 175.735947,145.346924 173.518433,145.689178 
z"/>
<path fill="#0D0D0D" opacity="1.000000" stroke="none" 
	d="
M266.134827,124.895538 
	C270.045502,132.172394 273.754669,139.144745 278.034058,147.188904 
	C269.529022,146.400192 262.235107,145.723785 254.671143,145.022339 
	C254.671143,133.236404 254.671143,121.711815 254.671143,110.187218 
	C254.979706,109.982315 255.288269,109.777405 255.596832,109.572502 
	C259.042328,114.578682 262.487854,119.584869 266.134827,124.895538 
z"/>
<path fill="#070707" opacity="1.000000" stroke="none" 
	d="
M321.734314,165.044769 
	C328.926331,166.089539 335.644287,167.086090 342.063324,168.038315 
	C333.726837,176.395187 325.319641,184.822922 317.076691,193.086029 
	C317.076691,184.221420 317.076691,174.719742 317.076691,164.779999 
	C318.466095,164.851929 319.863159,164.924255 321.734314,165.044769 
z"/>
<path fill="#060606" opacity="1.000000" stroke="none" 
	d="
M117.218811,183.928528 
	C117.218811,187.386551 117.218811,190.358032 117.218811,193.329514 
	C117.654495,192.801758 118.090179,192.274002 118.525864,191.746246 
	C110.239471,183.483246 101.953079,175.220261 94.380569,167.669128 
	C100.252121,166.829559 108.387161,165.666351 117.218811,164.403519 
	C117.218811,170.942612 117.218811,177.192307 117.218811,183.928528 
z"/>
<path fill="#151515" opacity="1.000000" stroke="none" 
	d="
M306.987885,187.142944 
	C303.924835,178.736969 300.990295,170.699356 297.807098,161.980591 
	C302.148438,162.521652 306.108032,163.015137 310.353149,163.544220 
	C310.353149,174.043747 310.353149,184.289444 310.353149,195.740341 
	C309.024994,192.363678 308.070679,189.937500 306.987885,187.142944 
z"/>
<path fill="#1A1A1A" opacity="1.000000" stroke="none" 
	d="
M126.477158,188.536041 
	C125.568649,190.812393 124.814232,192.740402 124.059807,194.668411 
	C123.816566,194.607758 123.573326,194.547104 123.330086,194.486450 
	C123.330086,185.237366 123.391426,175.987610 123.289429,166.739639 
	C123.261963,164.249481 123.987984,163.106628 126.640808,163.022812 
	C129.598297,162.929337 132.541687,162.389679 136.167282,161.965057 
	C132.887451,170.984116 129.759354,179.585907 126.477158,188.536041 
z"/>
<path fill="#020202" opacity="1.000000" stroke="none" 
	d="
M1658.653320,176.367645 
	C1653.537231,191.016479 1641.881226,196.998749 1628.916992,192.024368 
	C1622.701904,189.639572 1618.900269,184.939209 1616.763550,178.948883 
	C1612.823730,167.903580 1612.949951,156.714478 1617.072754,145.765854 
	C1620.947388,135.476776 1628.310059,130.763382 1638.896606,131.125381 
	C1647.556274,131.421494 1655.002441,137.599106 1658.073853,147.404419 
	C1661.024780,156.825302 1660.878296,166.394791 1658.653320,176.367645 
z"/>
<path fill="#010402" opacity="1.000000" stroke="none" 
	d="
M498.306671,125.624954 
	C501.737732,137.127975 505.060303,148.238510 508.523376,159.818939 
	C496.817139,159.818939 485.504761,159.818939 474.133484,159.818939 
	C479.642395,139.432495 485.093658,119.259384 490.864807,97.902435 
	C493.471313,107.616371 495.834747,116.424416 498.306671,125.624954 
z"/>
<path fill="#030303" opacity="1.000000" stroke="none" 
	d="
M1919.004761,152.205826 
	C1913.546143,152.205826 1908.586304,152.205826 1903.586548,152.205826 
	C1904.832764,138.644577 1913.146973,130.117386 1924.999756,129.773972 
	C1938.673584,129.377808 1946.141724,136.190979 1948.750977,152.205826 
	C1938.921997,152.205826 1929.212769,152.205826 1919.004761,152.205826 
z"/>
<path fill="#010402" opacity="1.000000" stroke="none" 
	d="
M1072.750000,168.685303 
	C1072.889282,171.934692 1072.904297,174.767654 1072.894531,177.600525 
	C1072.836792,194.479309 1055.595093,202.757080 1041.316895,197.381546 
	C1036.849243,195.699509 1033.956543,192.326950 1033.733276,187.184647 
	C1033.507324,181.978806 1035.653931,178.111069 1040.279419,175.802139 
	C1042.636475,174.625534 1045.133179,173.527008 1047.692017,172.993774 
	C1055.968262,171.269028 1064.302368,169.822525 1072.750000,168.685303 
z"/>
</svg>